<svg xmlns="http://www.w3.org/2000/svg" width="52.159" height="55" viewBox="0 0 52.159 55">
  <g id="expert" transform="translate(-0.5)">
    <path id="Path_42" data-name="Path 42" d="M52.659,348.774l-6.916-.986-3.051-6.051-3.051,6.051-5.006.714-5.005-.714-3.051-6.051-3.051,6.051-5.006.714-5.005-.714-3.051-6.051-3.051,6.051L.5,348.774l5.007,4.778-1.172,6.525,6.132-2.991,6.132,2.989-1.172-6.523,3.1-2.954,3.1,2.954-1.172,6.525,6.132-2.991,6.132,2.989-1.172-6.523,3.1-2.954,3.1,2.954-1.172,6.525,6.132-2.991,6.132,2.989-1.172-6.523Zm0,0" transform="translate(0 -305.077)" fill="#fff" opacity="0.2"/>
    <path id="Path_43" data-name="Path 43" d="M160.9,161.305a11.31,11.31,0,0,0-22.619,0v8.078H160.9Zm0,0" transform="translate(-123.007 -133.907)" fill="#fff"/>
    <path id="Path_44" data-name="Path 44" d="M184.433,8.078a8.078,8.078,0,1,0-8.078,8.078,8.088,8.088,0,0,0,8.078-8.078Zm0,0" transform="translate(-149.775)" fill="#fff"/>
  </g>
</svg>
