<svg xmlns="http://www.w3.org/2000/svg" width="51.881" height="50" viewBox="0 0 51.881 50">
  <g id="charity" transform="translate(0 -8.125)">
    <g id="Group_27" data-name="Group 27" transform="translate(17.596 8.125)" opacity="0.2">
      <g id="Group_26" data-name="Group 26" transform="translate(0 0)">
        <path id="Path_40" data-name="Path 40" d="M178.086,9.956a6.792,6.792,0,0,0-4.693-1.831,7.482,7.482,0,0,0-5.274,2.192l-.617.617-.617-.619a7.488,7.488,0,0,0-5.274-2.19,6.792,6.792,0,0,0-4.693,1.831,7.009,7.009,0,0,0-.155,10.062L167.5,30.756,178.24,20.019A7.009,7.009,0,0,0,178.086,9.956Z" transform="translate(-154.712 -8.125)" fill="#fff"/>
      </g>
    </g>
    <g id="Group_29" data-name="Group 29" transform="translate(0 33.606)">
      <g id="Group_28" data-name="Group 28" transform="translate(0 0)">
        <path id="Path_41" data-name="Path 41" d="M51.2,233.819c-1.62-1.118-3.53-.8-5.22.192s-11.4,9.448-11.4,9.448l-9.556,0a1.056,1.056,0,0,1-.926-.96.954.954,0,0,1,.926-.943h5.846c2.046,0,4.337-1.358,4.337-3.772,0-2.565-2.291-3.772-4.337-3.772-3.55,0-4.241.015-4.241.015a8.465,8.465,0,0,1-3.976-.692,10.8,10.8,0,0,0-5.011-1.211,10.6,10.6,0,0,0-7.676,3.2L0,245.328l11.111,11.317,3.7-3.772H33.569a7.545,7.545,0,0,0,5.063-1.96L51.33,236.4A1.672,1.672,0,0,0,51.2,233.819Z" transform="translate(0 -232.125)" fill="#fff"/>
      </g>
    </g>
  </g>
</svg>
