<svg xmlns="http://www.w3.org/2000/svg" width="46.048" height="45" viewBox="0 0 46.048 45">
  <g id="thumb-up-filled-gesture" transform="translate(0 -10.8)">
    <path id="Path_45" data-name="Path 45" d="M239.356,26.676l-17.143-.019s.994-4.089,1.172-6.005a12.19,12.19,0,0,0-.15-3.9A17.279,17.279,0,0,0,221.5,12.09a2.424,2.424,0,0,0-2.137-1.29h-3.32a2.419,2.419,0,0,0-2.412,2.435c.01,2.246.01,5.244-.039,5.345A59.912,59.912,0,0,1,209.08,26.5a27.058,27.058,0,0,1-2.538,3.3,2.419,2.419,0,0,0-.642,1.644V52.652a2.431,2.431,0,0,0,.675,1.683,4.952,4.952,0,0,0,3.706,1.465c6-.024,15.715-.078,22.624-.029a2.4,2.4,0,0,0,2.1-1.2L241.1,44.081a4.882,4.882,0,0,0,.637-2.391l.034-12.578A2.428,2.428,0,0,0,239.356,26.676Z" transform="translate(-195.721)" fill="#fff"/>
    <path id="Path_46" data-name="Path 46" d="M4.687,409.5H2.472A2.473,2.473,0,0,0,0,411.972V433.18a2.473,2.473,0,0,0,2.472,2.472h2.21a2.473,2.473,0,0,0,2.472-2.472V411.972A2.465,2.465,0,0,0,4.687,409.5Z" transform="translate(0 -379.852)" fill="#fff" opacity="0.2"/>
  </g>
</svg>
