<svg id="Group_4036" data-name="Group 4036" xmlns="http://www.w3.org/2000/svg" width="30" height="30" viewBox="0 0 30 30">
  <path id="Path_341" data-name="Path 341" d="M30,0H0V30H30Z" fill="none"/>
  <path id="Path_342" data-name="Path 342" d="M3,19.629V24.01a1.239,1.239,0,0,0,1.152,1.237c.541.037.984.057,1.326.057A19.825,19.825,0,0,0,25.305,5.478q0-.513-.057-1.326A1.239,1.239,0,0,0,24.011,3H19.63a.62.62,0,0,0-.617.558c-.028.285-.055.512-.079.684a17.225,17.225,0,0,1-1.5,4.958.565.565,0,0,0,.182.7l2.674,1.911a16.167,16.167,0,0,1-8.48,8.48L9.9,17.624a.572.572,0,0,0-.71-.185,17.225,17.225,0,0,1-4.956,1.493c-.172.025-.4.052-.681.079A.62.62,0,0,0,3,19.629Z" transform="translate(0.847 0.848)" fill="#1d71b9"/>
</svg>
