<svg xmlns="http://www.w3.org/2000/svg" width="70" height="70" viewBox="0 0 70 70">
  <g id="hair" transform="translate(0.001)">
    <circle id="Ellipse_9" data-name="Ellipse 9" cx="35" cy="35" r="35" transform="translate(-0.001 0)" fill="#153564"/>
    <path id="Path_275" data-name="Path 275" d="M.229,260.215c3.8-.063,10.133-.147,11.715-.031,2.3.168,7.669-.167,11.334-.167s7.315-1.148,8.082-.394a1.25,1.25,0,0,0-.083.665c-.918-.615-4.452.461-8,.461-3.665,0-9.032.336-11.334.167-1.577-.115-7.87-.033-11.678.03q-.022-.365-.036-.732Zm69.947-.243c-.008.245-.018.489-.031.733-1.434.021-3.38.043-5.37.043-3.921,0-10.868-1.05-17.552-.167S33.9,258.738,33.56,260.7c-.334,1.917-2.7,1.268-2.237-.237a1.171,1.171,0,0,0,2.237-.5c.342-1.963,6.98.764,13.664-.119s13.631.167,17.552.167c2,0,3.963-.022,5.4-.043Z" transform="translate(-0.197 -223.797)" fill="#fff"/>
    <path id="Path_276" data-name="Path 276" d="M.437,264.6c3.648-.064,10.437-.162,12.071-.04,2.264.168,7.542-.167,11.146-.167s7.195-1.148,7.948-.394c-.6,1.58,1.828,2.307,2.163.344s6.864.764,13.438-.119,13.406.167,17.261.167c2.244,0,4.431-.029,5.867-.052a35.129,35.129,0,0,1-.419,3.927c-6.224-.475-20.446-1.482-23.631-1.026a70.491,70.491,0,0,1-11.482.587H22.314c-5.531,0-15.421-.169-17.432-.169H.746q-.22-1.509-.309-3.058Z" transform="translate(-0.376 -227.577)" fill="#fed298"/>
    <path id="Path_277" data-name="Path 277" d="M3.229,292.66a10.653,10.653,0,0,1,5.185,1.153c3.7,2.2,6.019-2.084,10.416-.695s12.19-.091,14.142,0,1.714-.812,4.028.577,6.944-1.042,10.763-1.273,4.977,3.472,10.531,2.2a60.056,60.056,0,0,1,12.937-1.158q.382-1.492.633-3.033c-6.223-.475-20.446-1.482-23.631-1.026a70.55,70.55,0,0,1-11.481.586H24.265c-5.531,0-15.421-.168-17.432-.168H2.7Q2.907,291.261,3.229,292.66Z" transform="translate(-2.328 -249.739)" fill="#ff5b62"/>
    <path id="Path_278" data-name="Path 278" d="M74.589,313.18a60.057,60.057,0,0,0-12.937,1.158c-5.555,1.273-6.712-2.43-10.531-2.2s-8.449,2.662-10.763,1.273-2.077-.484-4.028-.577-9.744,1.387-14.142,0-6.713,2.894-10.416.695a10.653,10.653,0,0,0-5.185-1.153,35.01,35.01,0,0,0,68,.8Z" transform="translate(-5.685 -269.455)" fill="#ed4c54"/>
    <path id="Path_279" data-name="Path 279" d="M204.524,315.624l3.721-.108.043,8.056s-.027,3.411,1.645,4.905a3.879,3.879,0,0,1,.411,5.387c-.45.441-1.98.841-4.956.628-3.685-.7-2.771-4.64-2.1-5.808C205.178,325.423,204.524,318.906,204.524,315.624Z" transform="translate(-174.963 -272.379)" fill="#ff5b62"/>
    <path id="Path_280" data-name="Path 280" d="M235.16,61.912c-.05.038-18.19,13.411-17.1,41.683l.236,3.1s-.017,2.3,1.008,3.3a2.756,2.756,0,0,1,.259,3.62,1.187,1.187,0,0,1-1.446.227c-.628-.308.915-1.209-.539-1.19-1.924.025,1.159,1.57-1.06,1.395-2.258-.469-1.7-3.126-1.284-3.912,1.155-2.2.806-4.254.806-6.465-.971-12.91,4.012-30.987,19.12-41.762Z" transform="translate(-185.479 -53.447)" fill="#4d4d4d"/>
    <g id="Group_4004" data-name="Group 4004" transform="translate(3.505 19.205)">
      <path id="Path_281" data-name="Path 281" d="M287.019,175.419l-1.4-.065a21.984,21.984,0,0,1,13.3-15C298.52,161.105,290.163,162.977,287.019,175.419Z" transform="translate(-250.069 -157.64)" fill="#666"/>
      <path id="Path_282" data-name="Path 282" d="M395.617,215.149l-1.207-.1a12.44,12.44,0,0,1,4.759-9.2C398.625,206.615,396.2,208.329,395.617,215.149Z" transform="translate(-343.991 -196.913)" fill="#666"/>
      <path id="Path_283" data-name="Path 283" d="M149.036,140.471c-.039.022-13.853,8.253-13.212,18.393l-1.612-.006C133.876,153.522,138.218,146.425,149.036,140.471Z" transform="translate(-119.352 -140.471)" fill="#666"/>
      <path id="Path_284" data-name="Path 284" d="M26.782,234.289l-1.153-.095a8.917,8.917,0,0,1,3.771-6.76c-.4.562-2.187,1.827-2.619,6.855Z" transform="translate(-25.629 -215.545)" fill="#666"/>
    </g>
    <path id="Path_285" data-name="Path 285" d="M130.961,383.984a1.386,1.386,0,1,1-1.386,1.386A1.386,1.386,0,0,1,130.961,383.984ZM102.5,373.111a1.919,1.919,0,1,1-1.919,1.919A1.919,1.919,0,0,1,102.5,373.111Zm28.569,1.492a2.558,2.558,0,1,1-2.558,2.558A2.558,2.558,0,0,1,131.067,374.6Z" transform="translate(-86.828 -322.1)" fill="#ff5b62"/>
    <path id="Path_286" data-name="Path 286" d="M19.347,298.2a55.141,55.141,0,0,1,6.276.12c.183,0,.84.754-.04,1.06a14.345,14.345,0,0,1-3.758.152,7.748,7.748,0,0,1-2.718-.213c-.32-.213-.32-.72.24-1.119Zm56.618,1.4c.427.506,5.957.147,5.8-.093s-.133-1.093-.959-1.439c-1.6.027-4.419-.24-4.79.08-.336.218-.351,1.022-.047,1.453Zm-13.727-1.581c.746-.4,2.493-.058,5.372.209s4.093.108,4.32.481a.728.728,0,0,1-.376,1.064c-.472.209-7.791.09-8.88-.625s-.436-1.129-.436-1.129Zm-11.447.127a7.448,7.448,0,0,0,2.855.162c1.812-.24,3.474-.387,3.547.367.113,1.16-2.572,1.231-3.921,1.045a15.6,15.6,0,0,1-2.4-.108C50.445,299.4,50.258,298.894,50.791,298.148Zm-11.651.368a54.817,54.817,0,0,0,5.89-.591c1.262-.166.383,1.707-.1,1.738s-5.465.673-5.678.193-.861-1.206-.115-1.339Zm-3.829-.26c.8,0,.853.213.64.853s-.24.613-2.425.666-4.851-.049-5.064-.453c-.891-2.092,5.843-1.066,6.849-1.066Z" transform="translate(-16.308 -257.118)" fill="#ed4c54"/>
    <path id="Path_287" data-name="Path 287" d="M159.921,405.834a.161.161,0,1,1-.234.22c-.005-.005-1.733-1.933-3.749.889-1.824,2.553-3.017,2.874-3.364,2.91a4.838,4.838,0,0,1-1.3,1.33c2.016.034,4.726,2.033,4.735,2.04a.161.161,0,0,1-.19.26c-.01-.008-3.526-2.6-5.328-1.849l-.115.053,0,0,0,0h0l-.087.038a12.947,12.947,0,0,1-4.6.772c-3.856.133-2.04,3.188-2.552,3.405a.27.27,0,0,1-.291-.087s-.425-2.571.811-3.17c-1.028-.611-4.836-2.956-4.634-4.069.08-.438-.233-.856-.731-1.224a6.115,6.115,0,0,0-1.192-.66c-2.347,1.711-5.307-.455-5.315-.462a.161.161,0,1,1,.188-.262c.008.006,2.641,1.933,4.771.579a10.7,10.7,0,0,0-1.068-.345c-1.685-.45-2.562-3.3-2.564-3.307a.16.16,0,0,1,.307-.093c0,.008.827,2.686,2.339,3.089a10.881,10.881,0,0,1,1.375.467h0l.007,0h0a6.6,6.6,0,0,1,1.336.73,1.637,1.637,0,0,1,.855,1.539c-.076.42.647,1.114,1.549,1.8a.171.171,0,0,1,.022-.021c1.126-.881-.311-4.172-.316-4.181a.161.161,0,0,1,.3-.126c0,.01,1.508,3.444.26,4.524,1.167.855,2.523,1.655,2.846,1.843a4.944,4.944,0,0,1,1.682-.3,12.677,12.677,0,0,0,4.479-.747l.088-.039c.037-.019.074-.036.112-.052a4.845,4.845,0,0,0,2.686-3.361c1-3.779-.04-5.852-.042-5.858a.161.161,0,0,1,.289-.141c0,.006,1.092,2.185.064,6.081a6.3,6.3,0,0,1-.555,1.422c.455-.146,1.429-.7,2.881-2.729,2.248-3.147,4.24-.929,4.246-.923h0Z" transform="translate(-113.704 -346.947)" fill="#ff5b62"/>
  </g>
</svg>
