<svg xmlns="http://www.w3.org/2000/svg" xmlns:xlink="http://www.w3.org/1999/xlink" width="70" height="70" viewBox="0 0 70 70">
  <defs>
    <clipPath id="clip-path">
      <rect width="70" height="70" fill="none"/>
    </clipPath>
  </defs>
  <g id="pregnancy" clip-path="url(#clip-path)">
    <g id="pregnancy-2" data-name="pregnancy" transform="translate(0)">
      <circle id="Ellipse_6" data-name="Ellipse 6" cx="35" cy="35" r="35" transform="translate(0 0)" fill="#153564"/>
      <path id="Path_269" data-name="Path 269" d="M100.428.049a11.015,11.015,0,0,1-4.174,4.626C89.48,8.2,88.866,12.959,94.72,15.08c-27.2,18.4-17.183,42.614.824,42.614l.8,11.8a35.039,35.039,0,0,0,30.174-9.237c-.04-4.631-1.426-11.482-6.785-20.422-2.027-8.039,1.516-22.141,4.248-32.3A34.849,34.849,0,0,0,102.286,0q-.935,0-1.858.049Z" transform="translate(-67.286 0)" fill="#fed298"/>
      <g id="Group_4001" data-name="Group 4001" transform="translate(12.709 12.953)">
        <path id="Path_270" data-name="Path 270" d="M192.527,96.871q-.659.446-1.288.9a7.388,7.388,0,0,0,7.5-3.024c-2.345,2.026-6.211,2.127-6.211,2.127Z" transform="translate(-177.802 -94.744)" fill="#f0ba7d"/>
        <ellipse id="Ellipse_7" data-name="Ellipse 7" cx="12.507" cy="14.853" rx="12.507" ry="14.853" transform="translate(0 12.056)" fill="#f0ba7d"/>
      </g>
      <path id="Path_271" data-name="Path 271" d="M110.846,238.951s2.378-2.107,3.9-.722c.849.917.288,1.129,1.214,1.975s4.162,3.244.3,6.485-7.449-.739-7.493-3.111c0,0-3.3.524-6.778-4.2s-3.268-7.619-.67-9.361a5.632,5.632,0,0,1,5.368-.333,3.035,3.035,0,0,1-.806-1.407c-.061-.653-.077-.875-.077-.875-.823-.815.434-1.755,1.073-1.371.533.32,1.527-.7,2.084-.2.075-.2.454-.043.205.4a1.588,1.588,0,0,1-.684.526,1.2,1.2,0,0,1-.686.723c.785.647,2.46,3.378,1.91,4.305a2.138,2.138,0,0,1-2.379,1.008,4.064,4.064,0,0,1,1.02,1.895c.041.837-.015.7-.015.7a3.131,3.131,0,0,1,1.09-.994,10.835,10.835,0,0,1,2.957.089s1.264-.224,1.776.2c0,0,.125.1.109.207a.342.342,0,0,1,.266.434c.184.158.113.318.049.458.217.092.09.435-.079.422a.6.6,0,0,1,.1.355c-.03.152-.419.166-.7.272a1.237,1.237,0,0,1-.972-.265c-.576-.158-1.577.451-2.291-.074a1.987,1.987,0,0,1,.2,2.465Z" transform="translate(-85.786 -194.831)" fill="#fed298"/>
      <g id="Group_4002" data-name="Group 4002" transform="translate(13.586 35.631)">
        <path id="Path_272" data-name="Path 272" d="M108.766,273.729s-3.3.524-6.778-4.2c-3.2-4.344-3.277-7.137-1.256-8.913-3.5,4.049,3.159,12.391,8.033,13.118Z" transform="translate(-99.371 -260.612)" fill="#f0ba7d"/>
        <path id="Path_273" data-name="Path 273" d="M174.773,317.859a3.349,3.349,0,0,1-1.683,1.968A2.132,2.132,0,0,0,174.773,317.859Z" transform="translate(-163.011 -310.032)" fill="#f0ba7d"/>
      </g>
      <path id="Path_274" data-name="Path 274" d="M171.9,247.9c0,.01.67,3.492-1.4,3.952a7.062,7.062,0,0,1-1.88.073,5.771,5.771,0,0,0-4.744,1.9l-.191-.816c1.806-1.831,3.455-1.584,4.942-1.512,2.675.13,3.471-.626,2.96-3.54-.019-.321.144-.374.316-.058Z" transform="translate(-141.301 -213.828)" fill="#fed298"/>
      <ellipse id="Ellipse_8" data-name="Ellipse 8" cx="0.462" cy="0.703" rx="0.462" ry="0.703" transform="translate(23.248 9.726)" fill="#f0ba7d"/>
    </g>
  </g>
</svg>
