<svg id="nose" xmlns="http://www.w3.org/2000/svg" width="70" height="70" viewBox="0 0 70 70">
  <g id="Group_4016" data-name="Group 4016" transform="translate(33.473 0.305)">
    <path id="Path_334" data-name="Path 334" d="M33.767.253l1.469,3.8s6.457,16.736,14.238,30.1S44.3,52.46,38.1,53.279c-5.756.76-11.266,1.329-10.238,8.86a27.161,27.161,0,0,1,.3,4.289l-.078,3.492c.392.011.783.028,1.179.028A34.992,34.992,0,0,0,33.767.253Z" transform="translate(-27.735 -0.253)" fill="#153564"/>
  </g>
  <path id="Path_335" data-name="Path 335" d="M0,35A34.993,34.993,0,0,0,33.821,69.97l.078-3.492a27.16,27.16,0,0,0-.3-4.289c-1.028-7.531,4.482-8.1,10.238-8.86,6.2-.819,19.156-5.767,11.376-19.127S40.974,4.108,40.974,4.108L39.5.3A34.948,34.948,0,0,0,0,35Z" fill="#fbce9d"/>
  <path id="Path_336" data-name="Path 336" d="M40.745,44.953a5.462,5.462,0,0,1-2.252-.443,1.207,1.207,0,0,1,1-2.2,4.753,4.753,0,0,0,3.393-.229c-1.5-.234-5.343-.319-14.747,1.412-8.016,1.475-13.275.519-15.626-2.846C8.828,35.375,14.006,26.474,14.228,26.1a1.207,1.207,0,0,1,2.079,1.226c-1.291,2.2-4.137,8.624-1.812,11.946,1.736,2.483,6.3,3.126,13.208,1.853,16.469-3.031,17.644-.886,18.085-.081a1.853,1.853,0,0,1-.381,2.213A6.838,6.838,0,0,1,40.745,44.953Z" transform="translate(2.316 5.277)" fill="#db9549"/>
</svg>
