<svg xmlns="http://www.w3.org/2000/svg" width="70" height="70" viewBox="0 0 70 70">
  <g id="stomach" transform="translate(-0.142)">
    <circle id="Ellipse_4" data-name="Ellipse 4" cx="35" cy="35" r="35" transform="translate(0.142)" fill="#153564"/>
    <path id="Path_260" data-name="Path 260" d="M37.055,31.614c-.374,3.042-.908,11.312,3.584,17.428,1.657,2.255,3.42,2.4,4.11,3.282,8.69,14.326-6.647,19.216-7.584,16.131-1.681-5.528-13.505-9.224-22.439.1s-2.757,18.818-2.757,18.818l7.4-4.746s-4.211-7.11,2.3-10.53,8.162-.993,7.5,1.875-.736,12.249,9.265,13.677c34.349,4.906,43.733-48.195,20.981-48.339-6.252-.039-10.92,5.538-11.37,5.484-2.5-.3-4.645-10.018-3.214-12.872.711-1.417-6.122-2.841-7.776-.3Z" transform="translate(-8.535 -26.079)" fill="#ff5b62"/>
    <ellipse id="Ellipse_5" data-name="Ellipse 5" cx="4.411" cy="2.591" rx="4.411" ry="2.591" transform="translate(12.152 58.78) rotate(149.509)" fill="#ed4c54"/>
    <path id="Path_261" data-name="Path 261" d="M19.958,281.367a19.417,19.417,0,0,0-5.231,3.937c-8.934,9.32-2.757,18.818-2.757,18.818l.369-.237-.372-2.291a12.613,12.613,0,0,1-1.207-7.012C11.063,290.32,15.974,283.977,19.958,281.367Z" transform="translate(-8.535 -242.832)" fill="#ff878e"/>
    <path id="Path_262" data-name="Path 262" d="M22.88,431.938a1.667,1.667,0,0,1-.665-.622,2.258,2.258,0,0,1,.2-2.259Z" transform="translate(-18.981 -370.294)" fill="#ed4c54"/>
    <path id="Path_263" data-name="Path 263" d="M175.77,315.4c-2.992,1.377-6.179,1.357-7.839-.279h0s-3.184-1.864-4.153-1.684a1.133,1.133,0,0,0-.346.157c.066.079.131.159.194.244a6.027,6.027,0,0,1,.806,5.014,10.7,10.7,0,0,0,.506,5.7c1.131,2.838,3.47,4.13,6.41,4.55,12.379,1.768,22.111-4.812,27.146-15.876-10.037,4.072-15.662-1.661-22.722,2.174Z" transform="translate(-141.048 -270.325)" fill="#ff878e"/>
    <path id="Path_264" data-name="Path 264" d="M157.571,153.414a9.526,9.526,0,0,0,4.747,5.4,13.2,13.2,0,0,0,3.572,1c30.016,4.288,40.966-35.717,28.071-45.976,2.928,3.3,6.379,16.938.795,27.848-5.86,11.45-13.458,16.288-21.762,17.148-8.285.858-13.8-1.038-15.422-5.417Z" transform="translate(-135.99 -98.244)" fill="#ed4c54"/>
    <g id="Group_3997" data-name="Group 3997" transform="translate(9.3 4.88)">
      <path id="Path_267" data-name="Path 267" d="M258.624,35.631c-.848,4.292-.057,12.66,3.239,15.5a4.882,4.882,0,0,1,1.526-2.385c-.516.445-.843.731-.946.718-2.5-.3-4.645-10.017-3.214-12.872C259.4,36.253,259.138,35.915,258.624,35.631Z" transform="translate(-232.23 -35.631)" fill="#ed4c54"/>
      <path id="Path_268" data-name="Path 268" d="M79.367,322.563h0c2.036-6.564-13.973-2.315-11.126,6.276v0a6.268,6.268,0,0,1,3.493-7.2C77.505,318.607,79.459,320.171,79.367,322.563Z" transform="translate(-67.901 -280.504)" fill="#ed4c54"/>
    </g>
  </g>
</svg>
