<svg xmlns="http://www.w3.org/2000/svg" width="70" height="70" viewBox="0 0 70 70">
  <g id="uterus" transform="translate(0 0.001)">
    <path id="Path_324" data-name="Path 324" d="M70,35a35.006,35.006,0,0,1-31.326,34.81q-.862.091-1.737.137Q35.975,70,35,70t-1.938-.053q-.874-.047-1.738-.139A35.024,35.024,0,1,1,70,35Zm0,0" fill="#153564"/>
    <path id="Path_325" data-name="Path 325" d="M54.4,175.241a10.035,10.035,0,0,1,2.617,4.34,5.043,5.043,0,0,1-.948,5.034c-2.128,2.128-6.325,1.38-9.374-1.668-2.535-2.535-3.479-5.863-2.5-8.135a3.927,3.927,0,0,1,.833-1.238c2.129-2.129,6.324-1.382,9.373,1.667Zm0,0" transform="translate(-37.821 -148.797)" fill="#ffb92e"/>
    <path id="Path_326" data-name="Path 326" d="M56.788,175.241a10.035,10.035,0,0,1,2.617,4.34,3.926,3.926,0,0,1-.833,1.238c-2.129,2.129-6.325,1.38-9.374-1.669a10.033,10.033,0,0,1-2.616-4.339,3.927,3.927,0,0,1,.833-1.238c2.129-2.129,6.324-1.382,9.373,1.667Zm0,0" transform="translate(-40.213 -148.797)" fill="#ffd62c"/>
    <path id="Path_327" data-name="Path 327" d="M380.281,182.95a10.038,10.038,0,0,1-4.34,2.617,5.045,5.045,0,0,1-5.034-.948c-2.128-2.128-1.381-6.325,1.668-9.374,2.535-2.535,5.862-3.478,8.135-2.5a3.921,3.921,0,0,1,1.238.833C384.077,175.706,383.329,179.9,380.281,182.95Zm0,0" transform="translate(-319.151 -148.801)" fill="#ffb92e"/>
    <path id="Path_328" data-name="Path 328" d="M404.247,185.342a10.038,10.038,0,0,1-4.34,2.617,3.931,3.931,0,0,1-1.238-.834c-2.129-2.129-1.381-6.325,1.668-9.374a10.031,10.031,0,0,1,4.339-2.616,3.912,3.912,0,0,1,1.238.833C408.044,178.1,407.3,182.293,404.247,185.342Zm0,0" transform="translate(-343.117 -151.193)" fill="#ffd62c"/>
    <path id="Path_329" data-name="Path 329" d="M74.188,57.529a24.042,24.042,0,0,1-3.782,5.1.971.971,0,0,1-1.679-.728.972.972,0,0,0-1.284-.985l-2.026.7a.969.969,0,0,1-1.268-.735l0-.013a2.919,2.919,0,0,1,1.087-2.854c2.26-1.749,6.173-5.321,3.873-7.622-3.141-3.141-10.047-2-10.047,3.817a11.994,11.994,0,0,1-4.131,8.807C51.784,66.156,49,71.89,50.815,76.357c1.808,4.451,10.4,12.226-5.674,28.433a35.516,35.516,0,0,1-3.674.19,35.1,35.1,0,0,1-3.675-.192c-16.077-16.205-7.482-23.98-5.674-28.431,1.816-4.467-.969-10.2-4.113-13.346a11.992,11.992,0,0,1-4.13-8.807c0-5.819-6.906-6.959-10.047-3.817-2.3,2.3,1.611,5.873,3.871,7.622a2.918,2.918,0,0,1,1.087,2.854v.013a.972.972,0,0,1-1.27.735l-2.025-.7a.971.971,0,0,0-1.284.985.972.972,0,0,1-1.68.728,24.036,24.036,0,0,1-3.78-5.1c-1.7-3.274-2.092-7.043,1.544-10.678a10.207,10.207,0,0,1,8-3.092c4.434.119,8.7,2.079,11.667.1A20.68,20.68,0,0,1,41.467,40.52a20.673,20.673,0,0,1,11.513,3.337c2.971,1.981,7.234.019,11.669-.1a10.212,10.212,0,0,1,8,3.093c3.636,3.636,3.247,7.4,1.544,10.678Zm0,0" transform="translate(-6.467 -34.981)" fill="#ff648d"/>
    <path id="Path_330" data-name="Path 330" d="M179.045,98.672c-2.593,1.767-8.607,7.129-8.607,18.847,0,6.163,1.146,9.213,2.49,10.67a6.3,6.3,0,0,1,1.1,7.047c-2.466,5.04-5.61,12.044-6.4,16.437q-.962.054-1.937.053t-1.937-.053c-.787-4.393-3.932-11.4-6.4-16.437a6.3,6.3,0,0,1,1.1-7.047c1.344-1.457,2.49-4.507,2.49-10.67,0-11.718-6.015-17.08-8.607-18.847a2.183,2.183,0,0,1-.923-2.163l0-.015a2.184,2.184,0,0,1,2.937-1.679A34.655,34.655,0,0,0,165.7,97.322a34.651,34.651,0,0,0,11.333-2.507,2.185,2.185,0,0,1,2.937,1.679v.015a2.182,2.182,0,0,1-.922,2.163Zm0,0" transform="translate(-130.697 -81.727)" fill="#ea2f69"/>
    <g id="Group_4014" data-name="Group 4014" transform="translate(28.926 18.483)">
      <path id="Path_331" data-name="Path 331" d="M222.465,380.262H212.83a1.257,1.257,0,0,0,0,2.514h9.634a1.257,1.257,0,0,0,0-2.514Zm0,0" transform="translate(-211.574 -346.757)" fill="#ff648d"/>
      <path id="Path_332" data-name="Path 332" d="M222.465,345.543H212.83a1.257,1.257,0,1,0,0,2.513h9.634a1.257,1.257,0,1,0,0-2.513Zm0,0" transform="translate(-211.574 -316.785)" fill="#ff648d"/>
      <path id="Path_333" data-name="Path 333" d="M222.465,135.2H212.83a1.257,1.257,0,0,0,0,2.513h9.634a1.257,1.257,0,1,0,0-2.513Zm0,0" transform="translate(-211.574 -135.195)" fill="#ff648d"/>
    </g>
  </g>
</svg>
