<svg xmlns="http://www.w3.org/2000/svg" width="70" height="70" viewBox="0 0 70 70">
  <g id="newborn" transform="translate(-0.002)">
    <circle id="Ellipse_11" data-name="Ellipse 11" cx="35" cy="35" r="35" transform="translate(0.002 0)" fill="#153564"/>
    <path id="Path_297" data-name="Path 297" d="M52.878,131.363s-.163-7.462-4.975-7.87c-2.936,0-2.406,1.3-5.341,1.06s-12.233-2-11.662,9.827,13.16,11.662,17.319,7.952c0,0,4.362,6.524,18.063,4.975s18.349-6.524,17.207-13.782-7.992-9.786-7.992-9.786,2.487.081,3.711-.856,1.631-1.264,1.631-1.264,1.183.449,1.672-.326a3.2,3.2,0,0,0-1.02-3.711c-1.264-.734-2.283-3.915-2.977-3.915.224-.449-.65-.851-1.019.285a3.73,3.73,0,0,0,.183,2.019,5.244,5.244,0,0,0,.081,2.773,5.925,5.925,0,0,0-3.1-.387c-2.181.143-7.156,2.019-7.6,3.527s-.551,3.385,2.059,5.709c0,0-3.384,0-4.893,1.264S63.04,130,63.04,130a8.384,8.384,0,0,0,.754-3.812,37.093,37.093,0,0,0-.755-4.852s-.326-4.852-1.876-5.056c0,0-.367-.061-.53.142a.8.8,0,0,0-1.172.235c-.813-.371-1.055.085-1.192.418a.652.652,0,0,0-.928.561s-.637-.143-.851.153a2.873,2.873,0,0,0-.036,2.029,2.835,2.835,0,0,0,1.835,1.447,3.062,3.062,0,0,0-.224,1.774c.143,1.121-.061,3.915.346,4.648,0,0-4.812.081-5.532,3.679Z" transform="translate(-26.654 -97.735)" fill="#fed298"/>
    <g id="Group_4008" data-name="Group 4008" transform="translate(21.566 22.605)">
      <path id="Path_298" data-name="Path 298" d="M364.5,165.34a23.578,23.578,0,0,1,2.656,4.062s3.25-1.516,5.026-.51c.931.237,1.757-.244,1.967.3s-.5.906-.5.906a2.166,2.166,0,0,1-1.533,1.359,18.4,18.4,0,0,0-2.205.793c-1.083,1.421-3.068,3.277-4.046,1.562-.633-1.11-1.5-.46-2.791-2.373-.141-.209-.434,1.143-.675,1h0a14.112,14.112,0,0,0-5.147-3.709s2.487.081,3.711-.856,1.631-1.264,1.631-1.264,1.183.449,1.672-.326a1.965,1.965,0,0,0,.233-.951Z" transform="translate(-329.976 -165.34)" fill="#f0ba7d"/>
      <path id="Path_299" data-name="Path 299" d="M183.879,171.712c-.317-.9-.583-1.562-.583-1.562s-1.049-4.536-2.545-4.492c0,0-.356,0-.479.216a.769.769,0,0,0-1.072.4c-.825-.227-.984.241-1.063.577a.625.625,0,0,0-.791.672s-.624-.038-.781.274a2.752,2.752,0,0,0,.275,1.923,2.714,2.714,0,0,0,1.955,1.088,2.928,2.928,0,0,0,.059,1.71c.163.551.3,1.562.476,2.483,1.567-1.989,4.786-2.045,4.786-2.045a3.44,3.44,0,0,1-.237-1.246Z" transform="translate(-173.924 -165.614)" fill="#f0ba7d"/>
      <path id="Path_300" data-name="Path 300" d="M157.737,281.468s4.362,6.524,18.063,4.975c12.587-1.423,17.533-5.738,17.368-12.058-1.389,12.5-26.4,14.327-35.431,7.084Z" transform="translate(-157.737 -259.476)" fill="#f0ba7d"/>
      <path id="Path_301" data-name="Path 301" d="M187.94,234.6a7.864,7.864,0,0,0-.707,6.041A5.007,5.007,0,0,1,187.94,234.6Z" transform="translate(-182.597 -225.129)" fill="#f0ba7d"/>
    </g>
  </g>
</svg>
