<svg id="x-ray" xmlns="http://www.w3.org/2000/svg" width="70" height="70" viewBox="0 0 70 70">
  <circle id="Ellipse_12" data-name="Ellipse 12" cx="35" cy="35" r="35" fill="#153564"/>
  <path id="Path_302" data-name="Path 302" d="M143.636,95.564c.126-5.387.272-15.15-.269-16.944-.755-2.5-5.471-4.937-5.659-6.874s-3.029-5.718-3.029-8.033.431-8.309.478-9.537,1.96-6.375,2.432-7.6,2.527-.142,3.094.85a11.967,11.967,0,0,1,.945,2.479s-.377-5.975.189-8.1c.988-3.7,2.287-8,4.215-9.013a2.382,2.382,0,0,1,2.611,2.14,17.649,17.649,0,0,1-1.322,4.676l-.59,8s1.134-6.47,1.417-7.32,2.669-5.2,2.952-6.636a5.889,5.889,0,0,1,1.464-3c.413-.307,2.9.378,3.023,1.488a10.8,10.8,0,0,1-.4,3.684c-.259.661-2.409,8.336-2.409,8.336l.071,5.951.3,1.44a39.327,39.327,0,0,0,1.074-5.408c-.071-.945,1.181-3.991,1.417-4.652a70.792,70.792,0,0,1,3.542-7.769c.732-.921,2.432.118,2.432,1.535a30.969,30.969,0,0,1-.732,4.6s-1.3,4.628-1.635,6.28a68.589,68.589,0,0,0-.3,7.463s1.889-6.141,2.031-6.494,3.934-4.808,4.784-5.658,2.253.463,2.088,1.573-1.156,3.141-1.581,4.652S163.9,52.923,163.9,54.1a69.612,69.612,0,0,1-1.18,11c-.85,3.778-1.228,8.691-2.834,11.713-1.2,2.252.174,12.946.95,18.255a35.225,35.225,0,0,1-17.2.487Z" transform="translate(-116.266 -26.401)" fill="#ff5b62"/>
  <path id="Path_303" data-name="Path 303" d="M3.484,144.6H66.525a35.108,35.108,0,0,1,2.008,25.3H1.476a35.108,35.108,0,0,1,2.008-25.3Z" transform="translate(-0.004 -124.832)" fill="#21d0c3"/>
  <path id="Path_304" data-name="Path 304" d="M137.9,144.6h1.213a3.3,3.3,0,0,1,1.573,1.253,11.967,11.967,0,0,1,.945,2.479s-.112-1.774-.122-3.733h5.33l-.106,1.442s.1-.592.256-1.442h5.813l.047,3.944.3,1.44a40.384,40.384,0,0,0,1.075-5.385h5.019a69.475,69.475,0,0,0-.3,7.44s1.889-6.141,2.031-6.494a8.613,8.613,0,0,1,.713-.945h5.094c-.2.525-.385,1.043-.517,1.511-.425,1.511-2.361,5.243-2.361,6.423a69.612,69.612,0,0,1-1.18,11c-.44,1.955-.753,4.214-1.176,6.357H137.673c-.4-2-2.986-5.544-2.986-7.751,0-2.314.431-8.309.478-9.537s1.96-6.375,2.433-7.6a.824.824,0,0,1,.308-.4Z" transform="translate(-116.273 -124.828)" fill="#15bdb2"/>
  <g id="Group_4009" data-name="Group 4009" transform="translate(1.282 19.768)">
    <path id="Path_305" data-name="Path 305" d="M239.564,318.932h-8.176a1.788,1.788,0,0,1,1.461-1.6,2.173,2.173,0,0,1,2.357.642c.381-.46,1.317-.488,2.4-.152,1.065.329,1.832.629,1.958,1.106Z" transform="translate(-201.035 -293.636)" fill="#fefefe"/>
    <path id="Path_306" data-name="Path 306" d="M160.047,271.628h-4.852a6.763,6.763,0,0,0-1.015-2.6c-1.574-2.7-3.168-4.984-2.833-5.74s1.023-.117,2.164-.4,1.22-.822,1.5,0-.354,1.88.034,2.981c.763,2.167,1.567,3.374,3.154,4.235,1.019.554,1.752,1.047,1.854,1.529Z" transform="translate(-131.897 -246.332)" fill="#fefefe"/>
    <path id="Path_307" data-name="Path 307" d="M150.2,204.458c-.645-.572-2.546-.568-2.664.263s.177,2.794,0,4.443-.222,2.241-.664,2.643.163.75,1.063.69a5.651,5.651,0,0,0,2.139-.186c.813-.327.813-.717.134-1.574a4.671,4.671,0,0,1-.487-4.053C150.242,205.326,150.728,204.922,150.2,204.458Z" transform="translate(-127.95 -195.929)" fill="#fefefe"/>
    <path id="Path_308" data-name="Path 308" d="M153.086,164.915c.1-.458.788-.34,1.117-1.674s1.067-2.857.669-3.474.133-1.095.871-.491.693,2.82.221,3.713-.339,1.057.059,1.4.753.969-.266.944-1.181-.268-1.845-.172S153.057,165.05,153.086,164.915Z" transform="translate(-133.436 -157.029)" fill="#fefefe"/>
    <path id="Path_309" data-name="Path 309" d="M191.777,212.151h-2.513c-.972-.528-1.051-1.458-1.129-3.326-.088-2.116-1.063-9.062-1.269-10.773s-.8-2.115-.62-3.066.8-1.566,2.479-1.415,1.742.83,1.771,2.266-.059,7.174,0,9.34a7.029,7.029,0,0,0,1.751,4.093c.479.777.4,1.152.119,2.211a1.3,1.3,0,0,1-.589.671Z" transform="translate(-162.036 -186.855)" fill="#fefefe"/>
    <path id="Path_310" data-name="Path 310" d="M185.554,144.593h2.5c-.046,1.5-.548,2.892.412,4.474.978,1.611.585,2.486-.189,2.3a5.958,5.958,0,0,0-2.848-.086c-.649.237-1.077.061-1.21-.229s.841-1.007.856-2.026c.011-.782.439-2.963.478-4.437h0Z" transform="translate(-160.305 -144.592)" fill="#fefefe"/>
    <path id="Path_311" data-name="Path 311" d="M230.491,203.755c-1.259-.256-1.633-.579-2.258-.28s-.984.807-1.629.059a2.144,2.144,0,0,1,.029-2.372c.551-1.133.138-5.3.064-6.633s-1-5.9-.509-6.936a2.392,2.392,0,0,1,2.856-1.586c1.653.277,1.859,2.064.974,5.135s-.753,8.914,0,9.39c1.476.931,1.753,3.482.472,3.222Z" transform="translate(-196.422 -180.298)" fill="#fefefe"/>
    <path id="Path_312" data-name="Path 312" d="M230.783,144.6h2.9c-.035,1.423-.005,2.813.021,3.442.059,1.385,1.3,2.291-.383,2.212s-3.367.793-3.5-.223.76-1.611.937-4.758q.019-.344.03-.673Z" transform="translate(-199.665 -144.601)" fill="#fefefe"/>
    <path id="Path_313" data-name="Path 313" d="M262.668,207.781c-.228,1.159-.443,2.09.236,2.945s-.443,1.687-.767,1.963a1.994,1.994,0,0,1-2.922-.882c-.767-1.736.5-1.106,1.092-4.732s.767-6.143.413-7.527.413-2.618,2.273-2.542,2.479,1.485,1.446,3.575-1.648,6.575-1.771,7.2h0Z" transform="translate(-224.851 -189.837)" fill="#fefefe"/>
    <path id="Path_314" data-name="Path 314" d="M275.388,144.6h2.154a2.987,2.987,0,0,0-.342,1.613c.1,2.349.013,3.982.059,4.461.137,1.442.089,1.536-1.378,1.18s-2.367.71-2.656-.563.929-.649,1.716-4.038a18.689,18.689,0,0,0,.447-2.654Z" transform="translate(-237.114 -144.597)" fill="#fefefe"/>
    <path id="Path_315" data-name="Path 315" d="M285.8,230.8a3.344,3.344,0,0,0-.074,2.593c.3.957-.709,2.353-2.981,1.712s-1.284-3-.487-3.562,1.246-1.649,1.989-4.1-.1-4.281.751-5.283c.709-.83,1.38-1.02,2.952-.789,1.368.2,1.259,2.031.226,3.113s-2.139,5.667-2.376,6.319Z" transform="translate(-244.158 -210.797)" fill="#fefefe"/>
    <path id="Path_316" data-name="Path 316" d="M325.244,150.579l1.451-.485a1.009,1.009,0,0,0,.021.644,2.821,2.821,0,0,1,.094,2.8c-.653,1.286.445,4.12.683,4.7s-1.276.774-1.5.788c-1.054.066-1.805-.074-1.653-.7a4.609,4.609,0,0,0,.656-2.641c-.047-1.872-.5-2.5-.291-3.322.109-.428.339-1.123.535-1.783Z" transform="translate(-281.265 -149.342)" fill="#fefefe"/>
    <path id="Path_317" data-name="Path 317" d="M11.574,144.6H74.615q.157.326.309.655H11.266c.1-.22.2-.438.309-.655Zm65.238,24.641q-.092.329-.189.655H9.566q-.1-.326-.189-.655Z" transform="translate(-9.377 -144.601)" fill="#fefefe"/>
    <path id="Path_318" data-name="Path 318" d="M294.061,171.215a.4.4,0,0,0-.018.806h.258l.034,0,.034,0,.034,0,.035,0,.033,0,.034,0,.033,0,.034,0,.034,0,.034,0,.033,0,.034,0,.033,0,.033,0,.033,0,.033,0,.033.005.034.005.033.005.032.006.033.006.032.006.033.006.032.006.033.007.032.006.032.007.033.007.032.007.032.008.032.008.031.008.033.008.032.008.032.008.032.009.032.009.03.008a.4.4,0,0,0,.222-.775h0l-.03-.008-.036-.01-.036-.01-.036-.01-.036-.009-.036-.009-.037-.009-.037-.009-.036-.009-.037-.009-.036-.008-.038-.008-.037-.008-.036-.008-.038-.007-.036-.007-.038-.007-.038-.006-.038-.006-.038-.006-.037-.006-.037-.006-.038-.006-.038-.005-.038-.005-.038,0-.037,0-.038,0-.038,0-.038,0-.039,0-.038,0-.039,0-.039,0-.038,0-.039,0-.039,0-.039,0h-.284Zm-1.806,1.122a.4.4,0,0,0-.276-.757l-.016.006-.036.013-.035.013-.035.013-.034.013-.034.013-.036.014-.034.014-.034.014-.035.014-.035.015-.034.014-.033.015-.034.015-.034.016-.033.016-.034.016-.034.016-.033.016-.033.016-.033.017-.033.017-.033.017-.033.018-.032.018-.034.018-.032.018-.032.018-.032.018-.032.018-.032.018-.032.019-.032.02-.03.019-.031.019-.032.02-.031.02-.031.02-.031.02-.03.02-.031.02-.031.021-.03.021-.03.021-.03.021-.03.021-.03.021-.007.006a.4.4,0,0,0,.477.65l0,0,0,0,.026-.019.026-.018.026-.018.027-.018.027-.018.026-.018.027-.018.028-.018.027-.017.027-.017.027-.018.026-.016.028-.017.028-.017.027-.016.027-.016.028-.016.028-.016.028-.016.028-.016.028-.016.027-.015.028-.015.028-.015.028-.014.028-.014.028-.014.029-.014.029-.014.028-.014.029-.014.029-.014.028-.013.03-.013.03-.013.03-.013.029-.013.029-.012.031-.013.03-.013.028-.011.03-.012.03-.012.03-.011.03-.011.029-.011.016-.006h0Zm-2.8,2.366a.4.4,0,0,0-.7-.4l.126.071Zm-.7-.4,0,.007-.018.032-.018.032-.018.033-.018.032-.018.033-.017.033-.017.033-.017.033-.016.033-.016.033-.016.034-.016.033-.016.033-.016.034-.015.033-.015.033-.014.033-.015.035-.014.035-.014.033-.014.034-.014.036-.013.034-.013.034-.013.035-.013.035-.013.036-.013.035-.013.035-.012.035-.012.035-.012.035-.012.036-.011.035-.011.035-.011.037-.011.035-.011.036-.011.036-.01.036-.01.036-.01.036-.009.036-.009.036-.009.037-.009.037v0a.4.4,0,0,0,.739.3.422.422,0,0,0,.045-.114h0l-.785-.181m.787.181.008-.031.008-.031.008-.033.008-.032.008-.032.009-.032.009-.032.009-.031.009-.032.009-.032.009-.03.01-.032.01-.031.01-.03.011-.032.011-.031.011-.03.011-.031.011-.03.011-.029.011-.03.011-.03.012-.03.012-.03.011-.028.013-.03.013-.031.012-.029.013-.029.013-.03.013-.03.013-.03.013-.028.014-.029.014-.029.014-.028.014-.029.014-.029.014-.028.014-.028.014-.028.015-.028.015-.028.015-.027.016-.028.016-.028,0-.007m-.6,3.622a.4.4,0,0,0-.8.088.5.5,0,0,0,.007.064Zm-.791.152h0l.007.038.008.036.008.037.008.038.008.036.009.037.009.036.009.037.009.037.009.036.009.036.01.037.01.036.01.036.011.036.011.036.011.035.011.036.011.035.011.035.012.036.012.035.012.035.012.035.013.035.013.035.013.036.013.035.013.035.013.034.013.034.014.036.014.034.014.033.014.035.015.035.014.033.015.033.015.034.016.034.016.033.016.033.016.034.016.033.016.033.017.033,0,0a.4.4,0,0,0,.734-.329l-.019-.042h0l-.715.371m.715-.371-.014-.028-.014-.029-.014-.029-.014-.028-.014-.029-.014-.029-.013-.028-.013-.03-.013-.03-.013-.03-.013-.029-.012-.029-.013-.031-.013-.03-.011-.028-.012-.03-.012-.03-.011-.03-.011-.03-.011-.029-.011-.03-.011-.031-.011-.03-.011-.031-.011-.032-.01-.03-.01-.031-.01-.032-.009-.03-.009-.032-.009-.032-.009-.031-.009-.032-.009-.032-.008-.032-.008-.032-.008-.033-.008-.031-.008-.032-.008-.032-.007-.032-.007-.033-.007-.032-.006-.032-.007-.033-.006-.032h0m1.9,3.139a.4.4,0,0,0-.507.626l.006.005.011.009.028.022.028.022.03.023.03.023.029.021.029.021.03.022.03.021.03.021.03.021.03.021.03.021.031.021.031.02.03.02.031.02.031.02.031.02.032.02.031.019.03.019.032.02.032.019.032.018.032.018.032.018.032.018.032.018.033.018.032.018.033.018.034.017.033.017.033.017.033.016.033.016.034.016.033.016.034.016.034.016.033.015.034.015.033.014.035.015.035.014.033.014.014.006a.4.4,0,0,0,.345-.726l-.04-.019-.01,0L292,182.2l-.029-.012-.029-.013-.03-.013-.03-.013-.03-.013-.028-.013-.029-.014-.029-.014-.028-.014-.029-.014-.029-.014-.028-.014-.028-.014-.028-.014-.028-.015-.028-.015-.027-.015-.028-.016-.028-.016-.028-.016-.028-.016-.028-.016-.027-.016-.027-.016-.028-.017-.028-.017-.026-.016-.027-.018-.027-.017-.027-.017-.028-.018-.027-.018-.026-.018-.027-.018-.027-.018L291,181.64l-.026-.018-.026-.019-.025-.019-.026-.02-.025-.019-.025-.019-.025-.019-.025-.02-.026-.02-.011-.009Zm3.479,1.156a.4.4,0,0,0,.028.805h.076l.039,0,.039,0,.039,0,.038,0,.039,0,.039,0,.038,0,.039,0,.038,0,.038,0,.038,0,.037,0,.038,0,.038-.005.038-.005.038-.006.037-.006.037-.006.038-.006.038-.006.038-.006.038-.007.036-.007.038-.007.036-.008.037-.008.038-.008.036-.008.037-.009.036-.009.037-.009.037-.009.036-.009.036-.009.036-.01.036-.01.036-.01.036-.011.036-.011.035-.011.036-.011.035-.011.035-.011.009,0a.4.4,0,0,0-.212-.776l-.042.011h0l-.031.01-.032.01-.03.009-.032.009-.032.009-.031.009-.032.009-.032.009-.032.008-.032.008-.033.008-.031.008-.032.008-.032.008-.032.007-.033.007-.032.007-.032.006-.033.007-.032.006-.033.006-.032.006-.033.006-.032.006-.033.005-.033.005-.034.005-.033,0-.033,0-.033,0-.033,0-.034,0-.033,0-.034,0-.034,0-.033,0-.034,0-.033,0-.034,0-.035,0-.034,0-.033,0-.034,0h-.069Zm3.4-1.379a.4.4,0,0,0,.546.593l.018-.016.027-.025.027-.025.027-.025.027-.026.025-.025.027-.026.026-.026.026-.026.026-.027.025-.025.026-.027.025-.027.025-.027.025-.027.025-.027.025-.027.025-.028.024-.027.025-.028.024-.028.023-.028.024-.028.023-.028.023-.028.024-.029.023-.029.022-.028.022-.028.023-.03.023-.03.021-.029.021-.029.022-.03.021-.03.021-.03.021-.03.021-.03.021-.03.021-.031.02-.031.02-.03.02-.031.02-.031.02-.031.02-.032.019-.031.007-.012a.4.4,0,0,0-.637-.486.47.47,0,0,0-.051.067l-.006.009-.017.028-.016.026-.018.027-.017.027-.017.027-.018.028-.018.027-.018.026-.018.027-.018.027-.018.026-.018.026-.019.026-.019.025-.02.026-.019.025-.019.025-.019.025-.02.025-.02.026-.02.025-.02.024-.021.025-.02.025-.02.024-.021.025-.02.024-.021.024-.021.024-.021.023-.021.023-.021.023-.021.024-.021.023-.021.023-.021.023-.023.023-.022.023-.022.022-.022.022-.023.022-.023.023-.023.021-.023.021-.023.021-.024.021-.018.016v0h0Zm1.689-3.253a.4.4,0,0,0,.8.105v-.01l0-.02,0-.037,0-.038,0-.038,0-.038,0-.039,0-.038,0-.039,0-.039,0-.038,0-.039,0-.039,0-.039v-.55l0-.039,0-.039,0-.039,0-.038,0-.039,0-.039,0-.038,0-.039,0-.038,0-.038,0-.038,0-.037,0-.038-.005-.038-.005-.038-.006-.038-.006-.037,0-.029a.4.4,0,0,0-.8.126l0,.025.005.033,0,.033,0,.033,0,.033,0,.033,0,.034,0,.033,0,.033,0,.034,0,.033,0,.033,0,.033,0,.033,0,.035,0,.033,0,.033,0,.034v.48l0,.034,0,.033,0,.033,0,.035,0,.033,0,.034,0,.033,0,.033,0,.034,0,.033,0,.033,0,.034,0,.02Zm-.828-3.572a.4.4,0,1,0,.671-.446l-.018-.027-.02-.031-.021-.031-.021-.03-.021-.03-.021-.03-.021-.03-.021-.03-.022-.03-.021-.029-.021-.029-.023-.03-.023-.03-.022-.028-.022-.028-.023-.029-.024-.029-.023-.028-.023-.028-.024-.028-.023-.028-.024-.028-.025-.028-.024-.027-.025-.028-.025-.027-.025-.027-.025-.027-.025-.027-.025-.027-.026-.027-.025-.025-.026-.027-.026-.026-.026-.026-.027-.026-.025-.025-.027-.026-.027-.025-.027-.025-.027-.025-.027-.025-.027-.025-.028-.025-.027-.024-.028-.025-.028-.024-.005,0a.4.4,0,0,0-.6.522.441.441,0,0,0,.081.094l0,0,.024.02.024.021.024.021.023.021.023.021.023.021.024.021.023.021.023.021.023.021.023.023.023.022.022.022.022.022.022.023.023.023.021.023.021.023.021.023.021.024.021.023.021.023.021.023.021.024.021.024.02.024.021.025.02.024.02.025.021.025.02.024.02.025.02.026.02.025.019.025.019.025.019.025.02.026.019.025.019.026.018.026.018.026.018.027.018.027.018.026.018.027.018.027Z" transform="translate(-249.956 -167.574)" fill="#fefefe"/>
  </g>
</svg>
