<svg id="surgery" xmlns="http://www.w3.org/2000/svg" width="70" height="70" viewBox="0 0 70 70">
  <circle id="Ellipse_10" data-name="Ellipse 10" cx="35" cy="35" r="35" fill="#153564"/>
  <path id="Path_288" data-name="Path 288" d="M1.408,282.934a131.58,131.58,0,0,1,16.125,5.381c7.13,3.2,37.3-.855,53-2.18a35,35,0,0,1-69.129-3.2Z" transform="translate(-1.215 -244.252)" fill="#fed198"/>
  <path id="Path_289" data-name="Path 289" d="M86.534,335.044c.224-.376-.9-1.578-1.67,1.332-.054.2.67,1.242,1.223-.334l.447-1Zm-.22,5.3c-.2-.457-2.055-.646-.084,1.824.19.239,1.557.522.663-.8Zm4.307,4.364c-.242-.135-2.508-.1,1.149,1.612.138.064,2,.058-.132-1.044Zm6.562,2.593c-.251-.062-2.1.45.959,1.066,2.1.423,1.779-.509.856-.679l-1.815-.387Zm7.372.951c-.233,0-1.892.859,1.33.826,2.2-.023,1.515-.849.5-.825Zm7.449-.57c-.145.024-1.776,1.352,2.1.4.958-.235,1.151-1.121-.67-.7Zm6.855-2.17c-.311.145-.8,1.713,2.413-.314.213-.134.537-1.317-1.283-.281Zm5.067-3.933c-.258.346.636,1.661,1.861-1.19.078-.183-.463-1.318-1.281.257l-.58.933Zm1.047-5.252c.131.441,1.951.867.351-1.805-.132-.22-1.488-.692-.756.78Z" transform="translate(-73.258 -288.569)" fill="#fefefe"/>
  <path id="Path_290" data-name="Path 290" d="M114.015,357.091l9.22-.2,6.991.807-3.814.986-12.4-1.6Z" transform="translate(-98.427 -308.1)" fill="#ff5b62"/>
  <path id="Path_291" data-name="Path 291" d="M195.634,146.426l5.011,2.885a4.978,4.978,0,0,1,.18,5l-7.889,13.7c-6.67,11.584-14.182,7.732-14.182,7.732l16.88-29.315Zm1.691,2.04,1.915,1.12-9.275,15.85c-1,1.7-2.912.585-1.914-1.12Z" transform="translate(-154.315 -126.407)" fill="#eef3f7"/>
  <path id="Path_292" data-name="Path 292" d="M201.4,184.642a5.587,5.587,0,0,1-.578,2.658L192.936,201c-6.67,11.584-14.182,7.732-14.182,7.732,7.792,1.781,12.7-6.808,12.7-6.808Z" transform="translate(-154.315 -159.398)" fill="#fefefe"/>
  <path id="Path_293" data-name="Path 293" d="M315.251,32.128l-5.71,8.838L304.148,46.2a1.648,1.648,0,0,1-1.885.271L296.749,43.3c-.95-.547-1.138-.743-.51-1.832L305.6,25.246A35.091,35.091,0,0,1,315.251,32.128Z" transform="translate(-255.422 -21.794)" fill="#fad24d"/>
  <path id="Path_294" data-name="Path 294" d="M296.253,42.985c-.118-.294,0-.666.375-1.309L306,25.444c-.133-.066-.265-.134-.4-.2l-9.357,16.218c-.5.859-.483,1.163.011,1.521Z" transform="translate(-255.424 -21.794)" fill="#fff985"/>
  <path id="Path_295" data-name="Path 295" d="M254.573,163.883l-9.084,15.524a1.357,1.357,0,0,0,.014,1.686c-.67-.119-1.118-.931-.52-1.952l9.095-15.543Z" transform="translate(-211.247 -141.231)" fill="#d9dada"/>
  <path id="Path_296" data-name="Path 296" d="M341.487,58.77l6.319,3.312a.7.7,0,0,1,.305.925h0a.675.675,0,0,1-.918.284l-6.319-3.312a.7.7,0,0,1-.305-.925h0a.675.675,0,0,1,.918-.284Zm3.078-5.285,6.319,3.312a.7.7,0,0,1,.305.925h0a.674.674,0,0,1-.918.284l-6.319-3.312a.7.7,0,0,1-.305-.925h0A.674.674,0,0,1,344.564,53.486Zm-1.539,2.642,6.32,3.312a.7.7,0,0,1,.305.925h0a.674.674,0,0,1-.918.284l-6.32-3.312a.7.7,0,0,1-.305-.925h0A.675.675,0,0,1,343.026,56.128Z" transform="translate(-293.945 -46.105)" fill="#edb937"/>
</svg>
