<svg id="Group_4033" data-name="Group 4033" xmlns="http://www.w3.org/2000/svg" width="30" height="30" viewBox="0 0 30 30">
  <path id="Path_339" data-name="Path 339" d="M0,0H30V30H0Z" fill="none"/>
  <path id="Path_340" data-name="Path 340" d="M10.992,12.244A1.252,1.252,0,0,0,9.74,13.5v5.009h2.5V14.749H16v3.13L20.383,13.5,16,9.114v3.13ZM15.634,1.467l12.4,12.4a1.252,1.252,0,0,1,0,1.771l-12.4,12.4a1.252,1.252,0,0,1-1.771,0l-12.4-12.4a1.252,1.252,0,0,1,0-1.771l12.4-12.4a1.252,1.252,0,0,1,1.771,0Z" transform="translate(0.251 0.251)" fill="#153564"/>
</svg>
