<svg xmlns="http://www.w3.org/2000/svg" width="684.517" height="785" viewBox="0 0 684.517 785">
  <style>
    #gpaph {
      transform-origin: center;
      transform-box: fill-box;
      animation: clip 8s linear alternate infinite ;
    }
    @keyframes clip {
      0% {
        clip-path: polygon(0 0, 100% 0%, 100% 100%, 0 100%, 0% 50%);
      }
      50% {
        clip-path: polygon(44% 53%, 100% 0%, 100% 100%, 0 100%, 0 100%);
      }
      100% {
        clip-path: polygon(100% 100%, 100% 100%, 100% 100%, 0 100%, 98% 100%);
      }
    }
  </style>
  <path id="gpaph" d="M-2564.377,1163h-1.837c55.256-182.757,5.534-381.232-129.763-517.975-98.281-98.281-228.993-152.407-368.057-152.407a522.683,522.683,0,0,0-138.519,18.666V378h278.57a583.316,583.316,0,0,1,63.338,24.433,582.562,582.562,0,0,1,60.732,32.072,585.539,585.539,0,0,1,57.424,39.712,594.608,594.608,0,0,1,53.412,47.352A583.281,583.281,0,0,1-2583.871,664.9,582.433,582.433,0,0,1-2527.93,827.45a587.062,587.062,0,0,1,6.543,169.965A581.165,581.165,0,0,1-2564.377,1163Zm-47.878-293.469a434.812,434.812,0,0,0-95.076-142.606c-82.146-82.147-191.318-127.387-307.4-127.387a437.512,437.512,0,0,0-95.835,10.633,434.09,434.09,0,0,0-91.983,31.874V545a485.359,485.359,0,0,1,128.293-17.253c15.4,0,30.969.744,46.287,2.211,15.357,1.471,30.813,3.7,45.942,6.634,15.2,2.946,30.429,6.667,45.256,11.059,14.934,4.424,29.816,9.635,44.233,15.487,14.55,5.907,28.974,12.608,42.869,19.917,14.052,7.392,27.9,15.585,41.167,24.35a485.4,485.4,0,0,1,39.125,28.785,492.919,492.919,0,0,1,36.745,33.222,489.784,489.784,0,0,1,40.268,45.613,482.133,482.133,0,0,1,33.44,48.992,480.98,480.98,0,0,1,26.683,51.724,483.6,483.6,0,0,1,19.991,53.788Z" transform="translate(3202.553 -378)" fill="#fff" opacity="0.04"/>
</svg>
