<svg id="Group_4027" data-name="Group 4027" xmlns="http://www.w3.org/2000/svg" xmlns:xlink="http://www.w3.org/1999/xlink" width="60" height="60" viewBox="0 0 60 60">
  <defs>
    <linearGradient id="linear-gradient" x1="0.5" x2="-1.057" y2="1.565" gradientUnits="objectBoundingBox">
      <stop offset="0" stop-color="#fbcb0f"/>
      <stop offset="1" stop-color="#5d4a00"/>
    </linearGradient>
  </defs>
  <path id="Path_32" data-name="Path 32" d="M0,0H60V60H0Z" fill="none"/>
  <path id="Path_33" data-name="Path 33" d="M14,3V8H9V18a10,10,0,0,0,20,0V8H24V3h7.5A2.5,2.5,0,0,1,34,5.5V18A15.005,15.005,0,0,1,21.5,32.792V36.75a8.751,8.751,0,0,0,16.938,3.092,7.494,7.494,0,1,1,5.122.37A13.752,13.752,0,0,1,16.5,36.75V32.792A15,15,0,0,1,4,18V5.5A2.5,2.5,0,0,1,6.5,3Z" transform="translate(6 4.5)" fill="url(#linear-gradient)"/>
</svg>
