<svg width="189" height="90" viewBox="0 0 189 90" fill="none" xmlns="http://www.w3.org/2000/svg">
<style>
    #rotate {
        animation: spin 4s linear infinite;
        transform-origin: center;
        transform-box: fill-box;
    }
    @keyframes spin {
        0% {
            -webkit-transform: rotate(0deg);
            -ms-transform: rotate(0deg);
            transform: rotate(0deg);
        }

        100% {
            -webkit-transform: rotate(360deg);
            -ms-transform: rotate(360deg);
            transform: rotate(360deg);
        }
    }
</style>
<g id="Logo 1" clip-path="url(#clip0_334_2)">
<g id="Logo">
<g id="Group 3">
<g id="Group 2">
<g id="Group 1">
<path id="Path 1" d="M61.274 8.84799C61.274 8.84799 86.374 46.276 43.922 89.709C43.922 89.709 93.242 60.253 61.274 8.84799Z" fill="white"/>
<path id="Path 2" d="M0.489013 33.366C0.489013 33.366 -2.29999 80.104 42.114 89.555C42.114 89.606 -5.29499 98.592 0.489013 33.366Z" fill="white"/>
<path id="Path 3" d="M0.901978 28.886C0.901978 28.886 23.212 -8.246 60.086 8.745C60.138 8.745 26.414 -19.814 0.901978 28.886Z" fill="white"/>
<g id="rotate">
<g id="Group 6">
<path id="Path 4" d="M63.1851 53.246C61.1789 58.6141 57.5633 63.2314 52.8328 66.4663C48.1023 69.7011 42.488 71.3956 36.7578 71.3179C31.0275 71.2402 25.4612 69.3941 20.8202 66.0322C16.1792 62.6702 12.6901 57.9566 10.8302 52.5361C8.97029 47.1155 8.83041 41.2527 10.4297 35.7496C12.0289 30.2465 15.2892 25.3719 19.7646 21.7924C24.24 18.213 29.7119 16.1035 35.4319 15.7526C41.1519 15.4017 46.8407 16.8265 51.7201 19.832C47.3121 17.7157 42.3769 16.9497 37.5349 17.6302C32.6928 18.3107 28.16 20.4074 24.5061 23.6567C20.8523 26.906 18.2405 31.1629 16.999 35.8924C15.7576 40.6218 15.9419 45.6127 17.5288 50.2376C19.1158 54.8626 22.0345 58.9152 25.918 61.8862C29.8016 64.8571 34.4768 66.6137 39.3558 66.9352C44.2349 67.2567 49.1001 66.1287 53.3399 63.6931C57.5798 61.2574 61.005 57.6228 63.1851 53.246V53.246Z" fill="white"/>
<path id="Path 5" d="M22.696 43.118C22.6988 46.5302 23.5439 49.8889 25.1565 52.896C26.769 55.903 29.099 58.4655 31.9397 60.3559C34.7804 62.2462 38.0438 63.406 41.4404 63.7322C44.8369 64.0585 48.2614 63.5411 51.41 62.226C47.1461 64.4836 42.2814 65.3467 37.5011 64.6938C32.7208 64.0408 28.2658 61.9047 24.7636 58.5863C21.2613 55.2679 18.8883 50.9344 17.9788 46.1962C17.0693 41.4581 17.6691 36.5539 19.6937 32.1746C21.7184 27.7953 25.0658 24.1615 29.2646 21.785C33.4634 19.4084 38.3019 18.409 43.0986 18.9273C47.8954 19.4457 52.4087 21.4558 56.0028 24.6745C59.5969 27.8932 62.0907 32.1583 63.133 36.869C61.6319 32.167 58.5007 28.1558 54.3038 25.5581C50.1068 22.9605 45.1201 21.9473 40.2422 22.7011C35.3643 23.4549 30.916 25.9261 27.699 29.6695C24.4819 33.4129 22.7077 38.1822 22.696 43.118V43.118Z" fill="white"/>
</g>
</g>
</g>
</g>
</g>
<path id="Line 1" d="M86.681 0V89.432" stroke="white" stroke-miterlimit="10"/>
<g id="Group 5">
<path id="Path 9" d="M114.734 35.808H111.102V42.386H104.161V35.808H100.569V53.363H104.161V45.372H111.143V53.363H114.735L114.734 35.808Z" fill="white"/>
<path id="Path 10" d="M153.071 53.363V35.808H147.623L144.556 49.772L141.368 35.808H136V53.363H139.592V39.723L142.74 53.364H146.372L149.48 39.723V53.364L153.071 53.363Z" fill="white"/>
<path id="Path 11" d="M184.27 49.691C183.413 50.3369 182.35 50.6482 181.28 50.5664C180.21 50.4847 179.207 50.0156 178.458 49.247C177.489 47.9323 177.017 46.3167 177.126 44.687C177.057 43.2024 177.421 41.7298 178.175 40.449C178.55 39.8653 179.072 39.3903 179.688 39.0716C180.304 38.7529 180.993 38.6016 181.686 38.633C182.579 38.5686 183.462 38.8452 184.159 39.407C184.856 39.9689 185.313 40.774 185.439 41.66H188.869C188.834 40.437 188.426 39.254 187.699 38.27C186.972 37.3568 186.034 36.6339 184.965 36.1636C183.897 35.6933 182.73 35.4896 181.565 35.57C180.54 35.5292 179.518 35.6978 178.56 36.0656C177.603 36.4334 176.73 36.9926 175.996 37.709C175.143 38.6343 174.485 39.7223 174.061 40.9079C173.638 42.0936 173.459 43.3524 173.534 44.609C173.419 46.8449 174.074 49.0528 175.39 50.864C176.112 51.7657 177.036 52.4842 178.088 52.9611C179.14 53.4379 180.29 53.6596 181.444 53.608C183.237 53.6814 185.001 53.1402 186.444 52.074C187.202 51.4948 187.818 50.7502 188.245 49.8968C188.671 49.0435 188.898 48.104 188.906 47.15H185.435C185.42 47.6297 185.309 48.1016 185.109 48.5379C184.909 48.9742 184.624 49.3663 184.27 49.691V49.691Z" fill="white"/>
<path id="Path 12" d="M106.017 18.141C107.217 18.1449 108.378 17.7148 109.286 16.93C109.556 17.2305 109.886 17.4717 110.254 17.6385C110.622 17.8052 111.021 17.894 111.425 17.899H126.801L128.092 16.325V15.316H123.092C122.569 15.3318 122.051 15.2096 121.591 14.9615C121.13 14.7134 120.743 14.3483 120.469 13.903C120.103 13.2952 119.92 12.5942 119.944 11.885C119.944 9.54431 121.114 8.37398 123.455 8.37398C124.297 8.39953 125.134 8.50773 125.955 8.69699V6.23499C125.039 5.95292 124.088 5.80341 123.13 5.79099C121.601 5.74238 120.099 6.19583 118.852 7.08199C118.166 7.6037 117.617 8.2837 117.251 9.06387C116.886 9.84405 116.714 10.7012 116.752 11.562C116.732 12.8998 117.158 14.2063 117.963 15.275H112.313C112.238 15.2822 112.163 15.2713 112.093 15.2433C112.024 15.2153 111.962 15.1709 111.913 15.114C111.855 15.0565 111.81 14.9869 111.783 14.9101C111.755 14.8333 111.744 14.7513 111.752 14.67V5.42798H110.178L109.088 6.27498C108.245 5.91453 107.34 5.7226 106.424 5.70999C105.674 5.6986 104.93 5.83939 104.236 6.12386C103.543 6.40832 102.914 6.83055 102.388 7.36499C101.199 8.6729 100.55 10.3832 100.572 12.1508C100.595 13.9184 101.287 15.6117 102.509 16.889C103.497 17.7021 104.738 18.1449 106.017 18.141ZM104.604 9.38298C104.888 9.0541 105.242 8.79284 105.64 8.61827C106.038 8.4437 106.47 8.36023 106.904 8.37398C107.496 8.38697 108.082 8.49607 108.639 8.69699V15.154C108.027 15.4174 107.368 15.5535 106.702 15.554C106.289 15.5654 105.88 15.4843 105.503 15.3166C105.126 15.1489 104.791 14.8989 104.523 14.585C103.964 13.8427 103.679 12.9303 103.716 12.002C103.662 11.0468 103.981 10.1079 104.605 9.38298H104.604Z" fill="white"/>
<path id="Path 13" d="M110.053 3.73299C110.436 3.73279 110.806 3.5999 111.102 3.357C111.398 3.1141 111.6 2.77619 111.675 2.40085C111.749 2.02552 111.691 1.63599 111.511 1.2986C111.33 0.961223 111.038 0.696874 110.684 0.550603C110.331 0.404331 109.938 0.38518 109.571 0.496419C109.205 0.607657 108.889 0.842398 108.677 1.16065C108.464 1.4789 108.369 1.86097 108.406 2.24176C108.444 2.62256 108.612 2.97851 108.883 3.24898C109.195 3.55628 109.615 3.72989 110.053 3.73299V3.73299Z" fill="white"/>
<path id="Path 14" d="M106.179 3.73299C106.562 3.73279 106.932 3.5999 107.228 3.357C107.524 3.1141 107.726 2.77619 107.801 2.40085C107.875 2.02552 107.817 1.63599 107.636 1.2986C107.456 0.961223 107.164 0.696874 106.81 0.550603C106.457 0.404331 106.063 0.38518 105.697 0.496419C105.331 0.607657 105.015 0.842398 104.803 1.16065C104.59 1.4789 104.495 1.86097 104.532 2.24176C104.57 2.62256 104.738 2.97851 105.009 3.24898C105.157 3.41046 105.338 3.53752 105.54 3.62116C105.742 3.7048 105.96 3.74298 106.179 3.73299V3.73299Z" fill="white"/>
<path id="Path 15" d="M136.366 17.858H138.505C138.263 20.1987 136.73 21.369 133.905 21.369C133.242 21.3724 132.58 21.3185 131.927 21.208V22.338L133.218 23.952H133.299C133.783 23.992 134.147 23.992 134.389 23.992C135.178 23.9975 135.965 23.9024 136.73 23.709C137.829 23.4631 138.844 22.9343 139.676 22.175C140.27 21.6206 140.748 20.953 141.08 20.2115C141.413 19.47 141.594 18.6695 141.613 17.857H147.182L147.908 16.969H147.948C148.429 17.496 149.015 17.9157 149.669 18.2009C150.322 18.486 151.029 18.6302 151.742 18.624C152.385 18.6417 153.022 18.5085 153.604 18.2351C154.186 17.9618 154.695 17.5559 155.092 17.05C155.347 17.3143 155.655 17.5226 155.996 17.6615C156.336 17.8005 156.701 17.867 157.069 17.857H169.782C170.202 17.8625 170.617 17.7706 170.995 17.5886C171.373 17.4066 171.704 17.1394 171.961 16.808H172.001L172.849 17.857H178.055C178.807 17.859 179.53 17.5698 180.073 17.05C180.464 17.5624 180.972 17.973 181.555 18.247C182.139 18.521 182.779 18.6503 183.423 18.624C184.176 18.6462 184.923 18.4896 185.604 18.1669C186.284 17.8443 186.879 17.3649 187.338 16.768C188.417 15.3895 188.974 13.6743 188.912 11.925C188.966 11.0276 188.816 10.1296 188.474 9.29831C188.131 8.46703 187.605 7.72404 186.935 7.125C185.864 6.22446 184.499 5.75022 183.101 5.793C181.812 5.71556 180.534 6.07066 179.469 6.802C178.902 7.23277 178.449 7.79718 178.153 8.44499C177.856 9.09281 177.724 9.80392 177.769 10.515V14.631C177.773 14.712 177.761 14.793 177.733 14.8693C177.706 14.9456 177.663 15.0155 177.608 15.075C177.545 15.1392 177.47 15.19 177.386 15.2244C177.303 15.2588 177.214 15.276 177.124 15.275H172.524V12.127C172.556 11.3134 172.418 10.502 172.119 9.74445C171.821 8.98694 171.368 8.29988 170.789 7.72699C170.134 7.07665 169.352 6.56883 168.492 6.23548C167.631 5.90212 166.711 5.75044 165.789 5.79C164.282 5.81668 162.787 6.06121 161.35 6.51599V9.01599C162.594 8.70852 163.864 8.51934 165.144 8.45099C166.261 8.40608 167.355 8.78021 168.211 9.5C168.599 9.85827 168.904 10.2964 169.106 10.7841C169.308 11.2718 169.402 11.7975 169.381 12.325V14.625C169.396 14.7132 169.39 14.8037 169.363 14.8889C169.335 14.9742 169.288 15.0517 169.225 15.1149C169.162 15.1782 169.084 15.2253 168.999 15.2525C168.914 15.2797 168.823 15.286 168.735 15.271H157.874C157.706 15.2646 157.546 15.1929 157.43 15.071C157.348 14.9377 157.306 14.7836 157.309 14.627V10.511C157.346 9.80145 157.211 9.09351 156.916 8.44718C156.621 7.80084 156.174 7.23514 155.614 6.79799C154.572 6.08261 153.324 5.72822 152.062 5.789C150.59 5.73465 149.156 6.25584 148.062 7.24199C147.428 7.83855 146.934 8.56707 146.613 9.37598C146.292 10.1849 146.153 11.0544 146.206 11.923C146.189 13.0683 146.394 14.206 146.811 15.273H141.605V10.511C141.644 9.77292 141.494 9.03705 141.169 8.37311C140.845 7.70917 140.356 7.13914 139.749 6.717C138.76 6.05488 137.589 5.71629 136.399 5.748C135.605 5.72098 134.814 5.85353 134.072 6.13781C133.331 6.42208 132.653 6.85232 132.081 7.403C131.523 8.0015 131.092 8.70721 130.814 9.47731C130.537 10.2474 130.419 11.0659 130.467 11.883C130.412 13.3513 130.901 14.7883 131.839 15.919C132.403 16.5576 133.101 17.0628 133.884 17.3982C134.667 17.7335 135.515 17.8906 136.366 17.858V17.858ZM181.001 10.513C180.985 10.2288 181.031 9.94463 181.136 9.67987C181.24 9.41512 181.401 9.17603 181.606 8.97899C181.789 8.77801 182.014 8.61967 182.265 8.51514C182.516 8.41061 182.787 8.36242 183.059 8.374C183.44 8.36167 183.82 8.43505 184.169 8.58873C184.518 8.74242 184.828 8.97248 185.077 9.262C185.616 10.1024 185.91 11.0769 185.924 12.0754C185.938 13.0739 185.673 14.0565 185.158 14.912C184.945 15.2407 184.652 15.5096 184.306 15.6932C183.96 15.8768 183.573 15.9689 183.181 15.961C182.767 15.9576 182.358 15.8658 181.983 15.6918C181.607 15.5178 181.272 15.2656 181.002 14.952L181.001 10.513ZM150.168 9.34301C150.403 9.03272 150.709 8.78295 151.06 8.61443C151.411 8.44591 151.797 8.36349 152.186 8.374C152.471 8.35449 152.756 8.39867 153.021 8.50333C153.287 8.60799 153.525 8.77048 153.72 8.97899C153.922 9.17839 154.08 9.41786 154.185 9.68204C154.289 9.94622 154.337 10.2293 154.325 10.513V14.993C154.056 15.3009 153.728 15.5522 153.361 15.7323C152.994 15.9124 152.594 16.0177 152.186 16.042C151.786 16.0423 151.394 15.9382 151.047 15.74C150.7 15.5418 150.411 15.2564 150.208 14.912C149.662 14.0442 149.394 13.0302 149.441 12.006C149.349 11.0592 149.607 10.1115 150.168 9.34301V9.34301ZM134.429 9.303C134.686 8.9999 135.009 8.75897 135.373 8.59825C135.736 8.43754 136.132 8.36122 136.529 8.375C136.781 8.36628 137.033 8.40825 137.268 8.49843C137.504 8.58861 137.719 8.72516 137.901 8.9C138.126 9.10246 138.305 9.35193 138.423 9.6308C138.542 9.90968 138.598 10.2112 138.587 10.514V15.276H136.811C136.384 15.2938 135.957 15.2202 135.561 15.0602C135.164 14.9001 134.806 14.6573 134.511 14.348C133.917 13.6547 133.614 12.7593 133.664 11.848C133.619 10.9367 133.89 10.0378 134.429 9.302V9.303Z" fill="white"/>
<path id="Path 16" d="M163.889 20.253C163.618 20.5237 163.449 20.8801 163.411 21.2614C163.373 21.6427 163.469 22.0253 163.681 22.3441C163.894 22.6628 164.211 22.898 164.577 23.0094C164.944 23.1208 165.338 23.1017 165.692 22.9552C166.046 22.8087 166.338 22.544 166.519 22.2061C166.7 21.8683 166.758 21.4782 166.683 21.1023C166.609 20.7265 166.406 20.3882 166.11 20.145C165.814 19.9019 165.442 19.769 165.059 19.769C164.841 19.7667 164.626 19.8085 164.425 19.8916C164.224 19.9748 164.041 20.0977 163.889 20.253Z" fill="white"/>
<path id="Path 17" d="M104.968 67.87C104.697 68.1407 104.528 68.4971 104.49 68.8784C104.452 69.2597 104.548 69.6423 104.761 69.9611C104.973 70.2798 105.29 70.515 105.656 70.6264C106.023 70.7378 106.417 70.7187 106.771 70.5722C107.125 70.4257 107.418 70.161 107.598 69.8231C107.779 69.4852 107.837 69.0951 107.762 68.7193C107.688 68.3435 107.485 68.0052 107.189 67.762C106.893 67.5189 106.521 67.386 106.138 67.3859C105.921 67.3837 105.705 67.4254 105.504 67.5086C105.303 67.5918 105.121 67.7147 104.968 67.87Z" fill="white"/>
<path id="Path 18" d="M110.053 67.386C109.67 67.3862 109.3 67.5191 109.004 67.762C108.708 68.0049 108.506 68.3428 108.432 68.7181C108.357 69.0935 108.415 69.483 108.596 69.8204C108.776 70.1577 109.068 70.4221 109.422 70.5684C109.775 70.7146 110.169 70.7338 110.535 70.6225C110.901 70.5113 111.217 70.2766 111.43 69.9583C111.642 69.6401 111.738 69.258 111.7 68.8772C111.662 68.4964 111.494 68.1404 111.223 67.87C111.073 67.7116 110.891 67.5867 110.69 67.5033C110.488 67.4199 110.271 67.3799 110.053 67.386Z" fill="white"/>
<path id="Path 19" d="M124.638 86.691C124.256 86.6913 123.885 86.8242 123.59 87.067C123.294 87.3097 123.092 87.6474 123.018 88.0225C122.944 88.3976 123.002 88.7869 123.182 89.124C123.362 89.4612 123.654 89.7253 124.007 89.8715C124.361 90.0176 124.754 90.0368 125.12 89.9257C125.486 89.8145 125.802 89.58 126.014 89.262C126.226 88.944 126.322 88.5622 126.284 88.1816C126.247 87.8011 126.078 87.4454 125.808 87.175C125.66 87.0135 125.479 86.8865 125.277 86.8028C125.075 86.7192 124.857 86.681 124.638 86.691Z" fill="white"/>
<path id="Path 20" d="M128.642 86.691C128.26 86.6913 127.889 86.8242 127.594 87.0669C127.298 87.3097 127.096 87.6474 127.022 88.0225C126.948 88.3976 127.006 88.7869 127.186 89.124C127.366 89.4612 127.658 89.7253 128.011 89.8715C128.365 90.0176 128.758 90.0368 129.124 89.9257C129.49 89.8145 129.806 89.58 130.018 89.262C130.23 88.944 130.326 88.5622 130.288 88.1816C130.251 87.8011 130.082 87.4454 129.812 87.175C129.66 87.0197 129.477 86.8968 129.276 86.8136C129.075 86.7305 128.86 86.6888 128.642 86.691V86.691Z" fill="white"/>
<path id="Path 21" d="M142.388 86.691C142.006 86.6913 141.635 86.8242 141.34 87.0669C141.044 87.3097 140.842 87.6474 140.768 88.0225C140.694 88.3976 140.752 88.7869 140.932 89.124C141.112 89.4612 141.404 89.7253 141.757 89.8715C142.111 90.0176 142.504 90.0368 142.87 89.9257C143.236 89.8145 143.552 89.58 143.764 89.262C143.976 88.944 144.072 88.5622 144.034 88.1816C143.997 87.8011 143.828 87.4454 143.558 87.175C143.406 87.0197 143.223 86.8968 143.022 86.8136C142.821 86.7305 142.606 86.6888 142.388 86.691V86.691Z" fill="white"/>
<path id="Path 22" d="M179.03 81.566C179.034 81.6473 179.022 81.7286 178.993 81.805C178.965 81.8813 178.921 81.951 178.865 82.01C178.799 82.075 178.721 82.1263 178.635 82.1606C178.549 82.195 178.458 82.2118 178.365 82.21H173.614V81.847C173.614 81.647 173.655 81.524 173.655 81.447V79.026C173.677 78.2024 173.522 77.3837 173.202 76.6248C172.881 75.866 172.402 75.1844 171.796 74.626C171.106 73.9779 170.294 73.4731 169.407 73.1406C168.521 72.8081 167.577 72.6546 166.631 72.689C163.202 72.689 160.309 74.223 157.913 77.33V66.432H154.732V82.171H144.2V72.971H140.977V81.446C140.976 81.5461 140.953 81.6448 140.91 81.7354C140.867 81.826 140.806 81.9063 140.729 81.971C140.658 82.0392 140.574 82.0921 140.481 82.1265C140.389 82.1609 140.29 82.176 140.192 82.171H130.441V72.971H127.26V81.446C127.259 81.5461 127.236 81.6448 127.193 81.7354C127.15 81.826 127.089 81.9063 127.012 81.971C126.941 82.0392 126.857 82.0921 126.764 82.1265C126.672 82.1609 126.573 82.176 126.475 82.171H112.634C112.557 82.1789 112.48 82.1684 112.408 82.1404C112.336 82.1124 112.272 82.0677 112.221 82.01C112.162 81.9532 112.116 81.8838 112.088 81.8069C112.059 81.73 112.048 81.6476 112.056 81.566V72.324H110.403L109.287 73.171C108.423 72.8102 107.497 72.6184 106.56 72.606C105.796 72.5931 105.037 72.7329 104.327 73.0171C103.618 73.3012 102.972 73.7241 102.428 74.261C101.212 75.5561 100.546 77.2719 100.569 79.048C100.592 80.8241 101.303 82.522 102.552 83.785C103.539 84.6348 104.803 85.094 106.105 85.076C107.329 85.0817 108.515 84.6525 109.452 83.865C109.732 84.167 110.071 84.4086 110.447 84.5753C110.824 84.7419 111.23 84.8299 111.642 84.834H127.549C127.976 84.841 128.4 84.7501 128.786 84.5682C129.173 84.3864 129.513 84.1185 129.78 83.785H129.821L130.813 84.834H141.269C141.696 84.841 142.12 84.7501 142.506 84.5682C142.893 84.3864 143.233 84.1185 143.5 83.785H143.541L144.533 84.834H170.769C171.19 84.8404 171.607 84.749 171.987 84.567C172.367 84.385 172.7 84.1173 172.959 83.785H173.042L173.91 84.834H179.41C179.783 84.8358 180.152 84.7642 180.497 84.6232C180.842 84.4822 181.156 84.2746 181.421 84.0122C181.686 83.7499 181.896 83.4379 182.04 83.0942C182.184 82.7505 182.259 82.3817 182.261 82.009V66.472H179.069V81.566H179.03ZM108.791 82.131C108.163 82.3947 107.489 82.5306 106.808 82.531C106.388 82.5434 105.97 82.4631 105.584 82.2956C105.199 82.1281 104.855 81.8776 104.577 81.562C104.007 80.8247 103.715 79.9102 103.751 78.979C103.703 78.0199 104.029 77.0795 104.66 76.356C104.955 76.0253 105.318 75.7635 105.725 75.5892C106.132 75.4148 106.573 75.3321 107.015 75.347C107.621 75.3598 108.221 75.4688 108.792 75.67L108.791 82.131ZM170.436 81.566C170.436 82.01 170.229 82.212 169.775 82.212H157.875C158.798 79.9558 160.328 77.9999 162.296 76.562C163.411 75.8185 164.716 75.4123 166.056 75.392C167.053 75.368 168.033 75.6496 168.865 76.199C169.358 76.5234 169.76 76.9674 170.035 77.4896C170.31 78.0118 170.447 78.5951 170.435 79.185L170.436 81.566Z" fill="white"/>
<path id="Path 23" d="M185.763 85.48H187.297L188.911 84.189V66.472H185.763V85.48Z" fill="white"/>
</g>
</g>
</g>
<defs>
<clipPath id="clip0_334_2">
<rect width="188.912" height="90" fill="white"/>
</clipPath>
</defs>
</svg>
