<svg xmlns="http://www.w3.org/2000/svg" width="539.504" height="459.001" viewBox="0 0 539.504 459.001">
 <style>
    #graph {
      transform-origin: center;
      transform-box: fill-box;
      animation: clip 8s linear alternate infinite ;
    }
    @keyframes clip {
      0% {
       clip-path: polygon(0 0, 100% 0, 100% 100%, 0 100%, 0% 50%);
      }
      50% {
        clip-path: polygon(0 0, 41% 46%, 100% 100%, 0 100%, 0% 50%);
      }
      100% {
        clip-path: polygon(0 100%, 0 100%, 100% 100%, 0 100%, 0 100%);
      }
    }
  </style>
  <path id="graph" d="M-3082.838,839.287h-14.132a429.421,429.421,0,0,1-3.793-98.183,428.641,428.641,0,0,1,18.751-96.789,424.916,424.916,0,0,1,41.247-91.149,426.349,426.349,0,0,1,29.044-42.132,431.517,431.517,0,0,1,34.649-39.129c9.945-9.945,20.462-19.487,31.259-28.362,10.646-8.751,21.828-17.069,33.234-24.723,11.263-7.558,23.018-14.652,34.939-21.085,11.791-6.363,24.029-12.233,36.373-17.447H-2562.5V477.62a379.3,379.3,0,0,0-140.677-26.861c-101.587,0-197.068,39.535-268.856,111.323a381.4,381.4,0,0,0-84.653,129.948,379.8,379.8,0,0,0-26.152,147.255Zm49.654-113.217h0A351.287,351.287,0,0,1-2999.1,649a352.211,352.211,0,0,1,24.427-35.786,357.722,357.722,0,0,1,29.415-33.318,360.03,360.03,0,0,1,26.84-24.267,354.615,354.615,0,0,1,28.58-21.026,351.2,351.2,0,0,1,61.387-32.336,352.466,352.466,0,0,1,65.371-19.392,354.988,354.988,0,0,1,67.369-6.461,355.584,355.584,0,0,1,67.6,6.5A354.04,354.04,0,0,1-2562.5,502.4v80.043a316.189,316.189,0,0,0-176.7-53.588,315.5,315.5,0,0,0-224.543,93.053A317.62,317.62,0,0,0-3033.184,726.07Z" transform="translate(3102.004 -380.286)" fill="#fff" opacity="0.04"/>
</svg>
