<svg id="Group_7" data-name="Group 7" xmlns="http://www.w3.org/2000/svg" xmlns:xlink="http://www.w3.org/1999/xlink" width="24" height="24" viewBox="0 0 24 24">
  <defs>
    <linearGradient id="linear-gradient" x1="0.5" x2="-0.535" y2="1.962" gradientUnits="objectBoundingBox">
      <stop offset="0" stop-color="#65c7ea"/>
      <stop offset="1" stop-color="#0c00a4"/>
    </linearGradient>
  </defs>
  <path id="Path_26" data-name="Path 26" d="M0,0H24V24H0Z" fill="none"/>
  <path id="Path_27" data-name="Path 27" d="M14.121,10.48a1,1,0,0,0-1.414,0L12,11.186A2,2,0,1,1,9.172,8.358L14.8,2.726a6.5,6.5,0,0,1,6.377,10.568l-2.108,2.135-4.95-4.95ZM3.161,4.468A6.5,6.5,0,0,1,11.17,3.53L7.757,6.944a4,4,0,0,0,5.513,5.794l.144-.137,4.243,4.242-4.243,4.243a2,2,0,0,1-2.828,0L3.16,13.66a6.5,6.5,0,0,1,0-9.192Z" fill="url(#linear-gradient)"/>
</svg>
