<svg width="158" height="75" viewBox="0 0 158 75" fill="none" xmlns="http://www.w3.org/2000/svg">
<style>
    #rotate {
        animation: spin 4s linear infinite;
        transform-origin: center;
        transform-box: fill-box;
    }
    @keyframes spin {
        0% {
            -webkit-transform: rotate(0deg);
            -ms-transform: rotate(0deg);
            transform: rotate(0deg);
        }

        100% {
            -webkit-transform: rotate(360deg);
            -ms-transform: rotate(360deg);
            transform: rotate(360deg);
        }
    }
</style>
<g id="Logo 1" clip-path="url(#clip0_314_2)">
<g id="Logo">
<g id="Group 3">
<g id="Group 2">
<g id="Group 1">
<path id="Path 1" d="M51.375 7.418C51.375 7.418 72.419 38.586 36.826 74.755C36.826 74.755 78.178 50.226 51.375 7.418Z" fill="white"/>
<path id="Path 2" d="M0.409995 27.515C0.409995 27.515 -1.928 66.702 35.31 74.626C35.31 74.669 -4.44001 82.204 0.409995 27.515Z" fill="white"/>
<path id="Path 3" d="M0.756996 24.219C0.756996 24.219 19.463 -6.91401 50.38 7.33199C50.423 7.33199 22.148 -16.614 0.756996 24.219Z" fill="white"/>
<g id="rotate">
<path id="Path 4" d="M52.977 44.436C51.2949 48.9368 48.2634 52.8081 44.2972 55.5203C40.331 58.2325 35.6238 59.6531 30.8193 59.588C26.0149 59.5228 21.3479 57.975 17.4567 55.1563C13.5655 52.3375 10.6401 48.3855 9.08071 43.8407C7.52129 39.2959 7.40397 34.3803 8.7448 29.7663C10.0856 25.1524 12.8191 21.0652 16.5714 18.0641C20.3237 15.0629 24.9115 13.2942 29.7074 12.9999C34.5032 12.7056 39.2729 13.9001 43.364 16.42C39.6687 14.6467 35.5318 14.0053 31.473 14.5763C27.4143 15.1473 23.6149 16.9052 20.5523 19.6292C17.4898 22.3532 15.3007 25.9217 14.2603 29.8861C13.2199 33.8506 13.3745 38.0341 14.7047 41.9109C16.035 45.7878 18.4815 49.1849 21.7368 51.6754C24.992 54.1659 28.9109 55.6386 33.0007 55.9084C37.0905 56.1783 41.1688 55.2332 44.7231 53.1919C48.2773 51.1507 51.1489 48.1045 52.977 44.436V44.436Z" fill="url(#paint0_linear_314_2)"/>
<path id="Path 5" d="M19.03 35.958C19.0324 38.8189 19.7411 41.6349 21.0932 44.1561C22.4452 46.6773 24.3988 48.8257 26.7805 50.4107C29.1622 51.9956 31.8983 52.968 34.7461 53.2416C37.5939 53.5152 40.4651 53.0815 43.105 51.979C39.53 53.8718 35.4513 54.5954 31.4434 54.048C27.4354 53.5005 23.7002 51.7095 20.7638 48.9273C17.8275 46.145 15.8378 42.5117 15.0752 38.5391C14.3127 34.5665 14.8155 30.4547 16.513 26.783C18.2104 23.1112 21.017 20.0645 24.5373 18.0718C28.0576 16.0792 32.1144 15.2412 36.1361 15.6757C40.1579 16.1102 43.942 17.7954 46.9555 20.494C49.9689 23.1925 52.06 26.7684 52.934 30.718C51.6723 26.7797 49.0463 23.4209 45.5287 21.2463C42.0111 19.0716 37.8329 18.2238 33.7459 18.8554C29.6589 19.4871 25.9315 21.5566 23.2345 24.6917C20.5375 27.8268 19.048 31.8215 19.034 35.957L19.03 35.958Z" fill="url(#paint1_linear_314_2)"/>
</g>
</g>
</g>
</g>
<path id="Line 1" d="M72.234 0V74.524" stroke="white" stroke-miterlimit="10"/>
<g id="Group 5">
<path id="Path 9" d="M95.233 29.797H92.188V35.313H86.368V29.797H83.356V44.516H86.368V37.816H92.222V44.516H95.234L95.233 29.797Z" fill="white"/>
<path id="Path 10" d="M127.376 44.516V29.797H122.808L120.236 41.505L117.563 29.797H113.063V44.516H116.075V33.079L118.714 44.516H121.763L124.369 33.079V44.516H127.376Z" fill="white"/>
<path id="Path 11" d="M153.534 41.437C152.815 41.9779 151.924 42.2385 151.027 42.17C150.13 42.1016 149.289 41.7087 148.661 41.065C147.848 39.9625 147.452 38.6076 147.544 37.241C147.486 35.9963 147.792 34.7617 148.424 33.688C148.738 33.1985 149.176 32.8001 149.692 32.5328C150.209 32.2655 150.787 32.1387 151.368 32.165C152.116 32.1109 152.857 32.3428 153.442 32.8139C154.026 33.285 154.409 33.9601 154.515 34.703H157.391C157.362 33.6777 157.019 32.6859 156.41 31.861C155.801 31.0949 155.014 30.4883 154.119 30.0934C153.223 29.6985 152.245 29.5271 151.268 29.594C150.409 29.5596 149.551 29.7009 148.748 30.0092C147.945 30.3175 147.214 30.7863 146.598 31.387C145.882 32.1629 145.331 33.0753 144.976 34.0695C144.621 35.0637 144.471 36.1193 144.534 37.173C144.437 39.048 144.987 40.8995 146.091 42.418C146.696 43.1739 147.471 43.7763 148.354 44.1759C149.236 44.5756 150.2 44.7613 151.167 44.718C152.673 44.7814 154.155 44.3276 155.367 43.432C156.003 42.9464 156.519 42.3221 156.877 41.6068C157.234 40.8914 157.424 40.1038 157.431 39.304H154.521C154.507 39.7074 154.413 40.104 154.243 40.4703C154.074 40.8366 153.833 41.1653 153.534 41.437Z" fill="white"/>
<path id="Path 12" d="M87.924 15.21C88.9302 15.2134 89.9037 14.853 90.665 14.195C90.8916 14.4468 91.1679 14.649 91.4765 14.7887C91.7851 14.9285 92.1193 15.0028 92.458 15.007H105.35L106.433 13.687V12.841H102.233C101.795 12.8539 101.361 12.7513 100.974 12.5435C100.588 12.3357 100.264 12.03 100.033 11.657C99.7259 11.1474 99.5731 10.5597 99.593 9.96499C99.5354 9.565 99.5718 9.15709 99.6994 8.77363C99.827 8.39018 100.042 8.04174 100.328 7.75598C100.614 7.47022 100.962 7.25501 101.346 7.12742C101.729 6.99984 102.137 6.9634 102.537 7.02099C103.244 7.04223 103.948 7.13301 104.637 7.292V5.22799C103.869 4.99155 103.071 4.86628 102.268 4.856C100.986 4.81516 99.7261 5.19556 98.681 5.93899C98.1062 6.37648 97.6459 6.94662 97.3394 7.6007C97.0329 8.25479 96.8894 8.97337 96.921 9.695C96.904 10.8166 97.2611 11.912 97.936 12.808H93.199C93.1359 12.8145 93.0722 12.8056 93.0134 12.7821C92.9545 12.7586 92.9022 12.7212 92.861 12.673C92.8124 12.6249 92.775 12.5665 92.7517 12.5022C92.7283 12.4378 92.7196 12.3691 92.726 12.301V4.55099H91.406L90.492 5.26199C89.7857 4.95976 89.0271 4.79873 88.259 4.78799C87.6305 4.77834 87.0065 4.89628 86.4248 5.13469C85.8432 5.37309 85.3159 5.72699 84.875 6.175C83.8775 7.27146 83.3331 8.7055 83.3516 10.1877C83.3702 11.6699 83.9503 13.0899 84.975 14.161C85.8054 14.8442 86.8487 15.2153 87.924 15.21V15.21ZM86.74 7.867C86.9782 7.59119 87.275 7.37209 87.6088 7.22572C87.9425 7.07935 88.3048 7.0094 88.669 7.02099C89.1655 7.03192 89.6569 7.12345 90.124 7.292V12.706C89.6112 12.9277 89.0587 13.0427 88.5 13.044C88.1542 13.0536 87.8106 12.9857 87.4944 12.8452C87.1783 12.7047 86.8976 12.4952 86.673 12.232C86.2045 11.6096 85.9653 10.8444 85.996 10.066C85.9498 9.26429 86.2165 8.47597 86.74 7.867V7.867Z" fill="white"/>
<path id="Path 13" d="M91.308 3.12999C91.6286 3.12978 91.9392 3.01843 92.187 2.81489C92.4347 2.61136 92.6042 2.32823 92.6666 2.01375C92.729 1.69926 92.6804 1.37286 92.5292 1.09016C92.3779 0.807462 92.1334 0.585937 91.8371 0.463331C91.5409 0.340725 91.2113 0.324618 90.9045 0.417753C90.5977 0.510888 90.3327 0.707514 90.1546 0.974119C89.9765 1.24072 89.8963 1.56082 89.9278 1.8799C89.9592 2.19897 90.1003 2.49727 90.327 2.724C90.5888 2.98171 90.9407 3.12732 91.308 3.12999V3.12999Z" fill="white"/>
<path id="Path 14" d="M88.059 3.12999C88.3796 3.12978 88.6902 3.01843 88.938 2.81489C89.1857 2.61136 89.3552 2.32823 89.4176 2.01375C89.48 1.69926 89.4314 1.37286 89.2802 1.09016C89.1289 0.807462 88.8844 0.585937 88.5881 0.463331C88.2919 0.340725 87.9623 0.324618 87.6555 0.417753C87.3487 0.510888 87.0837 0.707514 86.9056 0.974119C86.7275 1.24072 86.6473 1.56082 86.6788 1.8799C86.7102 2.19897 86.8513 2.49727 87.078 2.724C87.2018 2.85941 87.3538 2.96597 87.5233 3.03613C87.6929 3.10629 87.8757 3.13832 88.059 3.12999V3.12999Z" fill="white"/>
<path id="Path 15" d="M113.37 14.973H115.163C114.963 16.9357 113.677 17.917 111.306 17.917C110.75 17.9198 110.196 17.8746 109.648 17.782V18.729L110.731 20.083H110.799C111.205 20.117 111.51 20.117 111.713 20.117C112.375 20.1217 113.034 20.0421 113.676 19.88C114.597 19.6739 115.449 19.2305 116.146 18.594C116.644 18.129 117.045 17.5692 117.323 16.9474C117.602 16.3256 117.754 15.6543 117.77 14.973H122.44L123.049 14.229H123.083C123.486 14.6707 123.978 15.0225 124.526 15.2615C125.074 15.5005 125.666 15.6213 126.264 15.616C126.803 15.6309 127.338 15.5192 127.825 15.2899C128.313 15.0607 128.741 14.7203 129.073 14.296C129.287 14.5177 129.545 14.6925 129.831 14.809C130.116 14.9256 130.423 14.9814 130.731 14.973H141.39C141.742 14.9775 142.09 14.9004 142.407 14.7477C142.724 14.595 143.001 14.3709 143.217 14.093H143.251L143.962 14.973H148.327C148.957 14.9746 149.564 14.732 150.019 14.296C150.347 14.7257 150.773 15.07 151.262 15.2998C151.751 15.5296 152.288 15.638 152.828 15.616C153.459 15.6345 154.086 15.503 154.656 15.2323C155.227 14.9617 155.725 14.5595 156.11 14.059C157.015 12.9031 157.482 11.4649 157.43 9.99801C157.475 9.24519 157.35 8.49188 157.062 7.7945C156.775 7.09712 156.334 6.47373 155.772 5.971C154.874 5.21583 153.73 4.81813 152.557 4.85399C151.476 4.78889 150.404 5.08665 149.512 5.7C149.037 6.06164 148.659 6.53506 148.411 7.07816C148.163 7.62126 148.053 8.2172 148.091 8.81299V12.264C148.094 12.3319 148.084 12.3998 148.061 12.4637C148.038 12.5276 148.002 12.5862 147.956 12.636C147.903 12.6901 147.84 12.733 147.77 12.762C147.701 12.7911 147.626 12.8057 147.55 12.805H143.693V10.166C143.72 9.48398 143.604 8.80387 143.353 8.16895C143.103 7.53403 142.723 6.95818 142.238 6.478C141.688 5.93177 141.031 5.50544 140.308 5.22593C139.585 4.94641 138.812 4.81977 138.038 4.85399C136.774 4.8764 135.521 5.08154 134.316 5.463V7.56299C135.359 7.3051 136.424 7.1464 137.497 7.08899C138.434 7.0514 139.351 7.36526 140.069 7.969C140.394 8.26945 140.65 8.63684 140.82 9.04583C140.989 9.45482 141.068 9.89568 141.05 10.338V12.267C141.062 12.3408 141.057 12.4165 141.034 12.4878C141.011 12.5591 140.972 12.6238 140.919 12.6768C140.866 12.7297 140.801 12.7692 140.73 12.792C140.659 12.8149 140.583 12.8203 140.509 12.808H131.409C131.268 12.8023 131.134 12.7416 131.037 12.639C130.969 12.5272 130.934 12.398 130.937 12.267V8.816C130.968 8.22112 130.855 7.62761 130.607 7.08573C130.36 6.54385 129.986 6.06954 129.516 5.70299C128.642 5.10324 127.596 4.8061 126.538 4.857C125.305 4.81231 124.104 5.24915 123.188 6.075C122.657 6.57514 122.242 7.18596 121.973 7.86423C121.704 8.54251 121.587 9.27164 121.631 10C121.617 10.9604 121.789 11.9144 122.139 12.809H117.774V8.816C117.807 8.19709 117.681 7.58009 117.408 7.02343C117.136 6.46677 116.726 5.98888 116.217 5.635C115.387 5.07994 114.406 4.79621 113.408 4.823C112.742 4.8002 112.079 4.91119 111.457 5.14943C110.835 5.38768 110.267 5.74832 109.787 6.21C109.319 6.71178 108.957 7.30345 108.725 7.9491C108.492 8.59476 108.393 9.28093 108.434 9.96599C108.388 11.1971 108.797 12.4019 109.584 13.35C110.056 13.8836 110.64 14.306 111.295 14.5866C111.949 14.8672 112.658 14.9992 113.37 14.973V14.973ZM150.794 8.81499C150.781 8.5767 150.82 8.33843 150.907 8.11648C150.995 7.89452 151.13 7.69413 151.302 7.529C151.456 7.3604 151.644 7.22753 151.855 7.13976C152.065 7.05199 152.292 7.01145 152.52 7.021C152.84 7.01061 153.158 7.07205 153.451 7.20081C153.743 7.32957 154.004 7.52237 154.212 7.76501C154.664 8.46958 154.91 9.28664 154.922 10.1238C154.934 10.9609 154.712 11.7847 154.28 12.502C154.101 12.7777 153.855 13.0031 153.565 13.1571C153.275 13.3111 152.95 13.3885 152.622 13.382C152.275 13.3792 151.932 13.3022 151.617 13.1563C151.302 13.0104 151.022 12.7989 150.795 12.536L150.794 8.81499ZM124.942 7.83401C125.139 7.5739 125.396 7.36457 125.69 7.22335C125.984 7.08213 126.308 7.0131 126.634 7.02199C126.873 7.00576 127.112 7.04294 127.334 7.13082C127.557 7.2187 127.757 7.35507 127.92 7.53C128.09 7.69711 128.222 7.89783 128.31 8.1193C128.397 8.34077 128.438 8.57808 128.428 8.816V12.572C128.202 12.8302 127.928 13.0409 127.62 13.192C127.312 13.3431 126.977 13.4315 126.635 13.452C126.3 13.4522 125.971 13.3649 125.68 13.1988C125.389 13.0327 125.147 12.7936 124.977 12.505C124.519 11.7775 124.295 10.9276 124.334 10.069C124.256 9.2745 124.472 8.47896 124.943 7.83401H124.942ZM111.742 7.79999C111.958 7.54596 112.228 7.34401 112.533 7.20928C112.838 7.07455 113.169 7.01052 113.502 7.02199C113.713 7.01474 113.924 7.04995 114.122 7.12552C114.319 7.2011 114.499 7.31551 114.652 7.462C114.841 7.63183 114.991 7.84112 115.09 8.07508C115.189 8.30904 115.236 8.56198 115.227 8.816V12.809H113.738C113.38 12.8239 113.022 12.7623 112.69 12.6281C112.357 12.494 112.057 12.2904 111.809 12.031C111.31 11.4489 111.055 10.6965 111.098 9.93101C111.063 9.1674 111.292 8.41508 111.746 7.79999H111.742Z" fill="white"/>
<path id="Path 16" d="M136.447 16.878C136.22 17.1051 136.078 17.404 136.046 17.7239C136.014 18.0437 136.095 18.3647 136.273 18.632C136.451 18.8994 136.717 19.0966 137.025 19.19C137.332 19.2834 137.663 19.2673 137.96 19.1444C138.257 19.0215 138.502 18.7994 138.653 18.516C138.805 18.2325 138.853 17.9053 138.791 17.59C138.728 17.2748 138.558 16.9911 138.309 16.7872C138.061 16.5833 137.749 16.4719 137.428 16.472C137.246 16.4701 137.065 16.5051 136.896 16.5749C136.728 16.6447 136.575 16.7478 136.447 16.878V16.878Z" fill="white"/>
<path id="Path 17" d="M87.044 56.548C86.8165 56.7751 86.6748 57.074 86.6431 57.3939C86.6114 57.7137 86.6916 58.0347 86.87 58.302C87.0484 58.5694 87.314 58.7666 87.6216 58.86C87.9291 58.9534 88.2595 58.9374 88.5565 58.8144C88.8535 58.6915 89.0987 58.4694 89.2502 58.186C89.4018 57.9025 89.4504 57.5753 89.3877 57.2601C89.325 56.9448 89.1549 56.6611 88.9064 56.4572C88.6579 56.2533 88.3464 56.1419 88.025 56.142C87.8426 56.1401 87.6616 56.1752 87.4931 56.2449C87.3245 56.3147 87.1718 56.4178 87.044 56.548V56.548Z" fill="white"/>
<path id="Path 18" d="M91.307 56.142C90.9864 56.1422 90.6757 56.2536 90.428 56.4571C90.1803 56.6606 90.0108 56.9438 89.9484 57.2583C89.886 57.5727 89.9345 57.8991 90.0858 58.1818C90.237 58.4645 90.4816 58.686 90.7779 58.8086C91.0741 58.9312 91.4037 58.9474 91.7105 58.8542C92.0173 58.7611 92.2823 58.5645 92.4604 58.2979C92.6385 58.0313 92.7186 57.7112 92.6872 57.3921C92.6558 57.073 92.5147 56.7747 92.288 56.548C92.1622 56.4151 92.0099 56.3102 91.8408 56.2403C91.6718 56.1703 91.4899 56.1368 91.307 56.142Z" fill="white"/>
<path id="Path 19" d="M103.536 72.225C103.215 72.2252 102.905 72.3366 102.657 72.5401C102.409 72.7436 102.24 73.0268 102.177 73.3413C102.115 73.6557 102.164 73.9821 102.315 74.2648C102.466 74.5475 102.711 74.7691 103.007 74.8917C103.303 75.0143 103.633 75.0304 103.94 74.9372C104.246 74.8441 104.511 74.6475 104.689 74.3809C104.867 74.1143 104.948 73.7942 104.916 73.4751C104.885 73.156 104.744 72.8577 104.517 72.631C104.393 72.4956 104.241 72.389 104.072 72.3189C103.902 72.2487 103.719 72.2167 103.536 72.225Z" fill="white"/>
<path id="Path 20" d="M106.893 72.225C106.572 72.2252 106.262 72.3366 106.014 72.5401C105.766 72.7436 105.597 73.0268 105.534 73.3412C105.472 73.6557 105.521 73.9821 105.672 74.2648C105.823 74.5475 106.068 74.7691 106.364 74.8917C106.66 75.0143 106.99 75.0304 107.297 74.9372C107.603 74.8441 107.868 74.6475 108.046 74.3809C108.225 74.1143 108.305 73.7942 108.273 73.4751C108.242 73.156 108.101 72.8577 107.874 72.631C107.746 72.5008 107.594 72.3977 107.425 72.3279C107.256 72.2581 107.075 72.2232 106.893 72.225V72.225Z" fill="white"/>
<path id="Path 21" d="M118.418 72.225C118.097 72.2252 117.787 72.3366 117.539 72.5401C117.291 72.7436 117.122 73.0268 117.059 73.3412C116.997 73.6557 117.046 73.9821 117.197 74.2648C117.348 74.5475 117.593 74.7691 117.889 74.8917C118.185 75.0143 118.515 75.0304 118.822 74.9372C119.128 74.8441 119.393 74.6475 119.571 74.3809C119.749 74.1143 119.83 73.7942 119.798 73.4751C119.767 73.156 119.626 72.8577 119.399 72.631C119.271 72.5008 119.118 72.3977 118.95 72.3279C118.781 72.2581 118.6 72.2232 118.418 72.225V72.225Z" fill="white"/>
<path id="Path 22" d="M149.141 67.928C149.144 67.9962 149.134 68.0644 149.11 68.1284C149.086 68.1924 149.049 68.2508 149.002 68.3C148.947 68.3544 148.882 68.3974 148.811 68.4264C148.74 68.4554 148.663 68.4699 148.586 68.469H144.602V68.169C144.602 68 144.637 67.898 144.637 67.831V65.801C144.655 65.1107 144.525 64.4244 144.256 63.7884C143.987 63.1523 143.586 62.5811 143.078 62.113C142.499 61.5697 141.819 61.1465 141.075 60.8678C140.332 60.589 139.541 60.4603 138.748 60.489C137.306 60.5 135.889 60.8596 134.616 61.5372C133.343 62.2147 132.253 63.19 131.439 64.38V55.239H128.772V68.439H119.938V60.724H117.238V67.83C117.237 67.9139 117.217 67.9966 117.181 68.0725C117.146 68.1483 117.094 68.2157 117.03 68.27C116.97 68.3274 116.9 68.3719 116.822 68.401C116.745 68.4301 116.663 68.443 116.58 68.439H108.404V60.724H105.737V67.83C105.736 67.9139 105.716 67.9966 105.68 68.0725C105.645 68.1483 105.593 68.2157 105.529 68.27C105.469 68.3274 105.399 68.3719 105.321 68.401C105.244 68.4301 105.162 68.443 105.079 68.439H93.471C93.4067 68.4456 93.3418 68.4368 93.2816 68.4134C93.2215 68.3899 93.1678 68.3524 93.125 68.304C93.0753 68.2565 93.0369 68.1983 93.0129 68.1339C92.9888 68.0695 92.9796 68.0005 92.986 67.932V60.179H91.6L90.665 60.89C89.9403 60.5874 89.1643 60.4265 88.379 60.416C87.7384 60.4052 87.102 60.5223 86.5072 60.7605C85.9124 60.9986 85.3711 61.353 84.915 61.803C83.895 62.8883 83.3356 64.3269 83.3542 65.8162C83.3729 67.3055 83.9682 68.7295 85.015 69.789C85.8424 70.5018 86.902 70.887 87.994 70.872C89.02 70.8768 90.0145 70.5171 90.8 69.857C91.0347 70.1101 91.3186 70.3126 91.6343 70.4522C91.95 70.5919 92.2908 70.6656 92.636 70.669H105.973C106.331 70.6746 106.686 70.5982 107.01 70.4457C107.335 70.2932 107.62 70.0686 107.844 69.789H107.879L108.71 70.669H117.474C117.832 70.6746 118.187 70.5982 118.511 70.4457C118.836 70.2932 119.121 70.0686 119.345 69.789H119.38L120.211 70.669H142.211C142.564 70.6743 142.914 70.5976 143.232 70.4449C143.551 70.2922 143.83 70.0677 144.047 69.789H144.116L144.844 70.669H149.456C149.768 70.6704 150.078 70.6103 150.367 70.492C150.657 70.3737 150.92 70.1996 151.142 69.9796C151.364 69.7596 151.54 69.4981 151.661 69.2099C151.782 68.9217 151.845 68.6125 151.846 68.3V55.273H149.176V67.928H149.141ZM90.25 68.402C89.7236 68.624 89.1583 68.7389 88.587 68.74C88.2346 68.7504 87.8843 68.683 87.5609 68.5426C87.2376 68.4023 86.9491 68.1924 86.716 67.928C86.2377 67.3098 85.9924 66.543 86.023 65.762C85.9824 64.9576 86.2555 64.1689 86.785 63.562C87.032 63.2847 87.337 63.0652 87.6783 62.919C88.0196 62.7728 88.3889 62.7035 88.76 62.716C89.2679 62.7268 89.7708 62.8183 90.25 62.987V68.402ZM141.936 67.928C141.936 68.3 141.763 68.469 141.382 68.469H131.405C132.178 66.5774 133.462 64.9375 135.112 63.732C136.046 63.1087 137.141 62.7681 138.264 62.751C139.1 62.7311 139.922 62.9673 140.62 63.428C141.033 63.6997 141.37 64.0715 141.6 64.5086C141.83 64.9458 141.946 65.4341 141.936 65.928V67.928Z" fill="white"/>
<path id="Path 23" d="M154.787 71.211H156.073L157.426 70.128V55.273H154.787V71.211Z" fill="white"/>
</g>
</g>
</g>
<defs>
<linearGradient id="paint0_linear_314_2" x1="46.0678" y1="12.9561" x2="5.66017" y2="109" gradientUnits="userSpaceOnUse">
<stop stop-color="#65C7EA"/>
<stop offset="1" stop-color="#0C00A4"/>
</linearGradient>
<linearGradient id="paint1_linear_314_2" x1="47.0886" y1="15.5638" x2="14.0635" y2="95.668" gradientUnits="userSpaceOnUse">
<stop stop-color="#65C7EA"/>
<stop offset="1" stop-color="#0C00A4"/>
</linearGradient>
<clipPath id="clip0_314_2">
<rect width="157.426" height="75" fill="white"/>
</clipPath>
</defs>
</svg>
