<svg xmlns="http://www.w3.org/2000/svg" width="759.298" height="842.001" viewBox="0 0 759.298 842.001">
  <style>
    #graph {
      transform-origin: center;
      transform-box: fill-box;
      animation: clip 5s linear alternate infinite ;
    }
    @keyframes clip {
      0% {
       clip-path: polygon(0 0, 100% 0, 100% 100%, 0 100%, 0% 50%);
      }
      50% {
        clip-path: polygon(0 0, 41% 46%, 100% 100%, 0 100%, 0% 50%);
      }
      100% {
        clip-path: polygon(0 100%, 0 100%, 100% 100%, 0 100%, 0 100%);
      }
    }
  </style>
  <path id="graph" d="M-3270.511,1161h-2.63A642.566,642.566,0,0,1-3319,979a648.847,648.847,0,0,1,8.121-186.512,643.638,643.638,0,0,1,61.957-178.249,644.676,644.676,0,0,1,115.648-157.217c14.95-14.951,30.759-29.3,46.985-42.656,16-13.169,32.8-25.692,49.94-37.222,16.922-11.386,34.583-22.08,52.492-31.787,17.714-9.6,36.1-18.467,54.641-26.352H-2563V446.429a577.56,577.56,0,0,0-155.875-21.4c-153.7,0-298.165,59.814-406.775,168.424-148,149.585-203.508,367.057-144.86,567.547Zm52.337-319.433h0a534.453,534.453,0,0,1,22.093-59.445,531.514,531.514,0,0,1,29.488-57.162,532.936,532.936,0,0,1,36.956-54.143,541.311,541.311,0,0,1,44.5-50.409,544.649,544.649,0,0,1,40.608-36.714,536.482,536.482,0,0,1,43.241-31.81c14.658-9.686,29.966-18.739,45.5-26.91,15.357-8.078,31.3-15.484,47.381-22.011,15.933-6.467,32.381-12.226,48.887-17.116,16.387-4.854,33.216-8.967,50.019-12.222,16.719-3.239,33.8-5.706,50.775-7.331,16.928-1.621,34.139-2.443,51.156-2.443A536.313,536.313,0,0,1-2563,483.687V591.521a479.6,479.6,0,0,0-102.97-36.243,483.454,483.454,0,0,0-107.411-12.092c-128.289,0-248.937,50-339.72,140.78A480.528,480.528,0,0,0-3218.174,841.567Z" transform="translate(3322.298 -319)" fill="#0c4f99" opacity="0.04"/>
</svg>
