<svg xmlns="http://www.w3.org/2000/svg" width="697.725" height="768.001" viewBox="0 0 697.725 768.001">
    <style>
        #graph {
            transform-origin: center;
            transform-box: fill-box;
            animation: clip 8s linear alternate infinite ;
        }
        @keyframes clip {
            0% {
                clip-path: polygon(0 0, 100% 0%, 100% 100%, 0 100%, 0% 50%);
            }
            50% {
                clip-path: polygon(44% 53%, 100% 0%, 100% 100%, 0 100%, 0 100%);
            }
            100% {
                clip-path: polygon(100% 100%, 100% 100%, 100% 100%, 0 100%, 98% 100%);
            }
        }
    </style>
  <path id="graph" d="M-2553.786,1038h-4.2a522.5,522.5,0,0,0-.38-263.448A526.252,526.252,0,0,0-2693.416,538.14c-98.479-98.479-229.473-152.714-368.85-152.714a523.184,523.184,0,0,0-150.57,22.083V270h289.177a584.686,584.686,0,0,1,63.954,24.468,583.942,583.942,0,0,1,61.326,32.228,586.8,586.8,0,0,1,57.976,39.987,595.654,595.654,0,0,1,53.9,47.745,584.8,584.8,0,0,1,102.99,139,583.535,583.535,0,0,1,56.531,157.461,588.5,588.5,0,0,1,9.949,165.121A583.543,583.543,0,0,1-2553.786,1038Zm-55.735-274.887a435.724,435.724,0,0,0-95.272-142.9C-2787.1,537.9-2896.5,492.569-3012.837,492.569a437.741,437.741,0,0,0-200,48.451V441.3a485.776,485.776,0,0,1,140.357-20.685c15.428,0,31.033.745,46.382,2.215,15.388,1.474,30.877,3.711,46.036,6.648,15.234,2.952,30.492,6.681,45.349,11.083,14.964,4.434,29.877,9.655,44.324,15.52,14.582,5.92,29.035,12.635,42.958,19.959,14.082,7.408,27.961,15.618,41.252,24.4a486.609,486.609,0,0,1,39.207,28.845,494.031,494.031,0,0,1,36.821,33.292,490.749,490.749,0,0,1,40.352,45.707,483.157,483.157,0,0,1,33.509,49.093,481.957,481.957,0,0,1,26.738,51.831,484.58,484.58,0,0,1,20.032,53.9Z" transform="translate(3212.836 -270)" fill="#fff" opacity="0.04"/>
</svg>
