<svg id="Group_4038" data-name="Group 4038" xmlns="http://www.w3.org/2000/svg" width="30" height="30" viewBox="0 0 30 30">
  <path id="Path_343" data-name="Path 343" d="M0,0H30V30H0Z" fill="none"/>
  <path id="Path_344" data-name="Path 344" d="M2.005,27.243l1.706-6.27a12.616,12.616,0,1,1,4.561,4.56ZM10.066,8.7a1.213,1.213,0,0,0-.468.126,1.632,1.632,0,0,0-.371.288A2.813,2.813,0,0,0,8.9,9.5a3.444,3.444,0,0,0-.713,2.118A4.415,4.415,0,0,0,8.6,13.4a12.057,12.057,0,0,0,2.488,3.461c.27.269.534.539.818.79a11.925,11.925,0,0,0,4.847,2.582l.718.11a6.863,6.863,0,0,0,.7-.016,2.512,2.512,0,0,0,1.051-.292c.21-.111.308-.167.483-.278,0,0,.054-.035.158-.114a2.9,2.9,0,0,0,.417-.363,1.449,1.449,0,0,0,.265-.381,3.515,3.515,0,0,0,.237-.925A2.476,2.476,0,0,0,20.8,17.5a.431.431,0,0,0-.24-.334l-.735-.329s-1.1-.478-1.768-.784A.629.629,0,0,0,17.836,16a.608.608,0,0,0-.477.16v0a15.2,15.2,0,0,0-1,1.178.442.442,0,0,1-.464.164,1.787,1.787,0,0,1-.241-.083c-.157-.066-.211-.091-.318-.138l-.006,0a7.585,7.585,0,0,1-1.982-1.262c-.159-.139-.307-.29-.458-.437a7.947,7.947,0,0,1-1.287-1.6l-.074-.12A1.165,1.165,0,0,1,11.4,13.6a.4.4,0,0,1,.077-.334s.307-.336.449-.517a5.528,5.528,0,0,0,.332-.471.764.764,0,0,0,.117-.677q-.53-1.295-1.1-2.576a.639.639,0,0,0-.5-.314c-.068-.008-.136-.015-.2-.02a4.272,4.272,0,0,0-.509.005Z" transform="translate(0.379 0.379)" fill="#4ea22b"/>
</svg>
